<svg xmlns="http://www.w3.org/2000/svg" version="1.1" width="617" height="222">
<path d="M 0.537109 198.984375 L 1.562988 198.984375 L 3.308594 204.033203 L 5.059570 198.984375 L 6.085449 198.984375 L 3.947754 205.000000 L 2.674805 205.000000 Z " fill="rgb(0, 0, 0)" fill-opacity="1.000000" />
<path d="M 358.697266 212.005859 L 361.227051 212.005859 L 361.227051 217.231934 L 363.187500 217.231934 L 363.187500 218.000000 L 358.278320 218.000000 L 358.278320 217.231934 L 360.238770 217.231934 L 360.238770 212.773926 L 358.697266 212.773926 Z M 360.238770 209.669434 L 361.227051 209.669434 L 361.227051 210.915527 L 360.238770 210.915527 Z " fill="rgb(0, 0, 0)" fill-opacity="1.000000" />
<path d="M 369.645020 214.272461 L 369.645020 218.000000 L 368.651367 218.000000 L 368.651367 214.272461 Q 368.651367 213.461426 368.366699 213.080078 Q 368.082031 212.698730 367.475098 212.698730 Q 366.782227 212.698730 366.408936 213.190186 Q 366.035645 213.681641 366.035645 214.600098 L 366.035645 218.000000 L 365.047363 218.000000 L 365.047363 211.984375 L 366.035645 211.984375 L 366.035645 212.886719 Q 366.298828 212.371094 366.750000 212.105225 Q 367.201172 211.839355 367.818848 211.839355 Q 368.737305 211.839355 369.191162 212.443604 Q 369.645020 213.047852 369.645020 214.272461 Z " fill="rgb(0, 0, 0)" fill-opacity="1.000000" />
<path d="M 375.608398 212.752441 L 375.608398 209.642578 L 376.596680 209.642578 L 376.596680 218.000000 L 375.608398 218.000000 L 375.608398 217.242676 Q 375.361328 217.688477 374.950439 217.922119 Q 374.539551 218.155762 374.002441 218.155762 Q 372.912109 218.155762 372.286377 217.309814 Q 371.660645 216.463867 371.660645 214.976074 Q 371.660645 213.509766 372.289062 212.674561 Q 372.917480 211.839355 374.002441 211.839355 Q 374.544922 211.839355 374.958496 212.072998 Q 375.372070 212.306641 375.608398 212.752441 Z M 372.702637 214.997559 Q 372.702637 216.146973 373.067871 216.732422 Q 373.433105 217.317871 374.147461 217.317871 Q 374.861816 217.317871 375.235107 216.727051 Q 375.608398 216.136230 375.608398 214.997559 Q 375.608398 213.853516 375.235107 213.265381 Q 374.861816 212.677246 374.147461 212.677246 Q 373.433105 212.677246 373.067871 213.262695 Q 372.702637 213.848145 372.702637 214.997559 Z " fill="rgb(0, 0, 0)" fill-opacity="1.000000" />
<path d="M 384.015625 214.498047 L 384.015625 214.981445 L 379.734863 214.981445 L 379.734863 215.013672 Q 379.691895 216.243652 380.204834 216.780762 Q 380.717773 217.317871 381.652344 217.317871 Q 382.125000 217.317871 382.640625 217.167480 Q 383.156250 217.017090 383.741699 216.710938 L 383.741699 217.693848 Q 383.177734 217.924805 382.654053 218.040283 Q 382.130371 218.155762 381.641602 218.155762 Q 380.239746 218.155762 379.450195 217.315186 Q 378.660645 216.474609 378.660645 214.997559 Q 378.660645 213.558105 379.434082 212.698730 Q 380.207520 211.839355 381.496582 211.839355 Q 382.645996 211.839355 383.309326 212.618164 Q 383.972656 213.396973 384.015625 214.498047 Z M 383.027344 214.208008 Q 382.962891 213.584961 382.573486 213.131104 Q 382.184082 212.677246 381.453613 212.677246 Q 380.739258 212.677246 380.277344 213.149902 Q 379.815430 213.622559 379.772461 214.213379 Z " fill="rgb(0, 0, 0)" fill-opacity="1.000000" />
<path d="M 391.004883 211.984375 L 388.851074 214.863281 L 391.214355 218.000000 L 390.070312 218.000000 L 388.308594 215.588379 L 386.552246 218.000000 L 385.408203 218.000000 L 387.771484 214.863281 L 385.617676 211.984375 L 386.713379 211.984375 L 388.308594 214.159668 L 389.893066 211.984375 Z " fill="rgb(0, 0, 0)" fill-opacity="1.000000" />
<path d="M 403.930664 214.997559 Q 403.930664 213.848145 403.565430 213.262695 Q 403.200195 212.677246 402.485840 212.677246 Q 401.766113 212.677246 401.395508 213.265381 Q 401.024902 213.853516 401.024902 214.997559 Q 401.024902 216.136230 401.395508 216.727051 Q 401.766113 217.317871 402.485840 217.317871 Q 403.200195 217.317871 403.565430 216.732422 Q 403.930664 216.146973 403.930664 214.997559 Z M 401.024902 212.752441 Q 401.261230 212.312012 401.677490 212.075684 Q 402.093750 211.839355 402.641602 211.839355 Q 403.726562 211.839355 404.349609 212.674561 Q 404.972656 213.509766 404.972656 214.976074 Q 404.972656 216.463867 404.346924 217.309814 Q 403.721191 218.155762 402.630859 218.155762 Q 402.093750 218.155762 401.682861 217.922119 Q 401.271973 217.688477 401.024902 217.242676 L 401.024902 218.000000 L 400.036621 218.000000 L 400.036621 209.642578 L 401.024902 209.642578 Z " fill="rgb(0, 0, 0)" fill-opacity="1.000000" />
<path d="M 407.047363 215.722656 L 407.047363 211.995117 L 408.035645 211.995117 L 408.035645 215.722656 Q 408.035645 216.533691 408.322998 216.915039 Q 408.610352 217.296387 409.211914 217.296387 Q 409.910156 217.296387 410.280762 216.804932 Q 410.651367 216.313477 410.651367 215.395020 L 410.651367 211.995117 L 411.645020 211.995117 L 411.645020 218.000000 L 410.651367 218.000000 L 410.651367 217.097656 Q 410.388184 217.618652 409.934326 217.887207 Q 409.480469 218.155762 408.873535 218.155762 Q 407.949707 218.155762 407.498535 217.551514 Q 407.047363 216.947266 407.047363 215.722656 Z " fill="rgb(0, 0, 0)" fill-opacity="1.000000" />
<path d="M 418.709473 209.642578 L 418.709473 210.464355 L 417.586914 210.464355 Q 417.055176 210.464355 416.848389 210.681885 Q 416.641602 210.899414 416.641602 211.452637 L 416.641602 211.984375 L 418.709473 211.984375 L 418.709473 212.752441 L 416.641602 212.752441 L 416.641602 218.000000 L 415.653320 218.000000 L 415.653320 212.752441 L 414.047363 212.752441 L 414.047363 211.984375 L 415.653320 211.984375 L 415.653320 211.565430 Q 415.653320 210.577148 416.107178 210.109863 Q 416.561035 209.642578 417.522461 209.642578 Z " fill="rgb(0, 0, 0)" fill-opacity="1.000000" />
<path d="M 425.709473 209.642578 L 425.709473 210.464355 L 424.586914 210.464355 Q 424.055176 210.464355 423.848389 210.681885 Q 423.641602 210.899414 423.641602 211.452637 L 423.641602 211.984375 L 425.709473 211.984375 L 425.709473 212.752441 L 423.641602 212.752441 L 423.641602 218.000000 L 422.653320 218.000000 L 422.653320 212.752441 L 421.047363 212.752441 L 421.047363 211.984375 L 422.653320 211.984375 L 422.653320 211.565430 Q 422.653320 210.577148 423.107178 210.109863 Q 423.561035 209.642578 424.522461 209.642578 Z " fill="rgb(0, 0, 0)" fill-opacity="1.000000" />
<path d="M 433.015625 214.498047 L 433.015625 214.981445 L 428.734863 214.981445 L 428.734863 215.013672 Q 428.691895 216.243652 429.204834 216.780762 Q 429.717773 217.317871 430.652344 217.317871 Q 431.125000 217.317871 431.640625 217.167480 Q 432.156250 217.017090 432.741699 216.710938 L 432.741699 217.693848 Q 432.177734 217.924805 431.654053 218.040283 Q 431.130371 218.155762 430.641602 218.155762 Q 429.239746 218.155762 428.450195 217.315186 Q 427.660645 216.474609 427.660645 214.997559 Q 427.660645 213.558105 428.434082 212.698730 Q 429.207520 211.839355 430.496582 211.839355 Q 431.645996 211.839355 432.309326 212.618164 Q 432.972656 213.396973 433.015625 214.498047 Z M 432.027344 214.208008 Q 431.962891 213.584961 431.573486 213.131104 Q 431.184082 212.677246 430.453613 212.677246 Q 429.739258 212.677246 429.277344 213.149902 Q 428.815430 213.622559 428.772461 214.213379 Z " fill="rgb(0, 0, 0)" fill-opacity="1.000000" />
<path d="M 440.203613 213.225098 Q 439.886719 212.978027 439.559082 212.865234 Q 439.231445 212.752441 438.839355 212.752441 Q 437.915527 212.752441 437.426758 213.332520 Q 436.937988 213.912598 436.937988 215.008301 L 436.937988 218.000000 L 435.944336 218.000000 L 435.944336 211.984375 L 436.937988 211.984375 L 436.937988 213.160645 Q 437.185059 212.521484 437.697998 212.180420 Q 438.210938 211.839355 438.914551 211.839355 Q 439.279785 211.839355 439.596680 211.930664 Q 439.913574 212.021973 440.203613 212.215332 Z " fill="rgb(0, 0, 0)" fill-opacity="1.000000" />
<path d="M 443.304199 211.989746 L 444.979980 211.989746 L 444.979980 213.928711 L 443.304199 213.928711 Z M 443.304199 216.044922 L 444.979980 216.044922 L 444.979980 218.000000 L 443.304199 218.000000 Z " fill="rgb(0, 0, 0)" fill-opacity="1.000000" />
<path d="M 460.542969 218.273926 L 460.542969 219.047363 L 460.199219 219.047363 Q 458.861816 219.047363 458.407959 218.649902 Q 457.954102 218.252441 457.954102 217.065430 L 457.954102 215.991211 Q 457.954102 215.405762 457.623779 214.981445 Q 457.293457 214.557129 456.600586 214.557129 L 455.945312 214.557129 L 455.945312 213.789062 L 456.600586 213.789062 Q 457.357910 213.789062 457.656006 213.429199 Q 457.954102 213.069336 457.954102 212.371094 L 457.954102 210.974609 Q 457.954102 209.787598 458.407959 209.392822 Q 458.861816 208.998047 460.199219 208.998047 L 460.542969 208.998047 L 460.542969 209.766113 L 460.166992 209.766113 Q 459.415039 209.766113 459.186768 209.999756 Q 458.958496 210.233398 458.958496 210.996094 L 458.958496 212.435547 Q 458.958496 213.380859 458.587891 213.705811 Q 458.217285 214.030762 457.143066 214.175781 Q 458.185059 214.299316 458.571777 214.651123 Q 458.958496 215.002930 458.958496 215.921387 L 458.958496 217.043945 Q 458.958496 217.812012 459.186768 218.042969 Q 459.415039 218.273926 460.166992 218.273926 Z " fill="rgb(0, 0, 0)" fill-opacity="1.000000" />
<path d="M 472.308594 209.862793 Q 473.592285 209.862793 474.250244 210.910156 Q 474.908203 211.957520 474.908203 214.009277 Q 474.908203 216.061035 474.250244 217.108398 Q 473.592285 218.155762 472.308594 218.155762 Q 471.024902 218.155762 470.369629 217.108398 Q 469.714355 216.061035 469.714355 214.009277 Q 469.714355 211.957520 470.369629 210.910156 Q 471.024902 209.862793 472.308594 209.862793 Z M 472.308594 217.296387 Q 473.071289 217.296387 473.444580 216.485352 Q 473.817871 215.674316 473.817871 214.009277 Q 473.817871 213.123047 473.710449 212.408691 L 471.153809 216.410156 Q 471.556641 217.296387 472.308594 217.296387 Z M 472.308594 210.722168 Q 471.551270 210.722168 471.177979 211.533203 Q 470.804688 212.344238 470.804688 214.009277 Q 470.804688 214.766602 470.906738 215.427246 L 473.409668 211.436523 Q 473.001465 210.722168 472.308594 210.722168 Z " fill="rgb(0, 0, 0)" fill-opacity="1.000000" />
<path d="M 478.374023 216.061035 L 480.049805 216.061035 L 480.049805 217.484375 L 478.857422 219.799316 L 477.783203 219.804688 L 478.374023 217.484375 Z " fill="rgb(0, 0, 0)" fill-opacity="1.000000" />
<path d="M 491.450195 217.092285 L 493.136719 217.092285 L 493.136719 211.033691 L 491.117188 212.005859 L 491.117188 210.963867 L 493.125977 210.007812 L 494.210938 210.007812 L 494.210938 217.092285 L 495.875977 217.092285 L 495.875977 218.000000 L 491.450195 218.000000 Z " fill="rgb(0, 0, 0)" fill-opacity="1.000000" />
<path d="M 499.374023 216.061035 L 501.049805 216.061035 L 501.049805 217.484375 L 499.857422 219.799316 L 498.783203 219.804688 L 499.374023 217.484375 Z " fill="rgb(0, 0, 0)" fill-opacity="1.000000" />
<path d="M 513.003418 217.086914 L 516.687988 217.086914 L 516.687988 218.000000 L 511.816406 218.000000 L 511.816406 217.086914 Q 512.820801 216.028809 513.572754 215.217773 Q 514.324707 214.406738 514.609375 214.073730 Q 515.146484 213.418457 515.334473 213.012939 Q 515.522461 212.607422 515.522461 212.183105 Q 515.522461 211.511719 515.127686 211.130371 Q 514.732910 210.749023 514.045410 210.749023 Q 513.556641 210.749023 513.019531 210.926270 Q 512.482422 211.103516 511.880859 211.463379 L 511.880859 210.367676 Q 512.434082 210.104492 512.968506 209.970215 Q 513.502930 209.835938 514.023926 209.835938 Q 515.200195 209.835938 515.917236 210.461670 Q 516.634277 211.087402 516.634277 212.102539 Q 516.634277 212.618164 516.395264 213.133789 Q 516.156250 213.649414 515.619141 214.272461 Q 515.318359 214.621582 514.746338 215.239258 Q 514.174316 215.856934 513.003418 217.086914 Z " fill="rgb(0, 0, 0)" fill-opacity="1.000000" />
<path d="M 520.374023 216.061035 L 522.049805 216.061035 L 522.049805 217.484375 L 520.857422 219.799316 L 519.783203 219.804688 L 520.374023 217.484375 Z " fill="rgb(0, 0, 0)" fill-opacity="1.000000" />
<path d="M 534.003418 217.086914 L 537.687988 217.086914 L 537.687988 218.000000 L 532.816406 218.000000 L 532.816406 217.086914 Q 533.820801 216.028809 534.572754 215.217773 Q 535.324707 214.406738 535.609375 214.073730 Q 536.146484 213.418457 536.334473 213.012939 Q 536.522461 212.607422 536.522461 212.183105 Q 536.522461 211.511719 536.127686 211.130371 Q 535.732910 210.749023 535.045410 210.749023 Q 534.556641 210.749023 534.019531 210.926270 Q 533.482422 211.103516 532.880859 211.463379 L 532.880859 210.367676 Q 533.434082 210.104492 533.968506 209.970215 Q 534.502930 209.835938 535.023926 209.835938 Q 536.200195 209.835938 536.917236 210.461670 Q 537.634277 211.087402 537.634277 212.102539 Q 537.634277 212.618164 537.395264 213.133789 Q 537.156250 213.649414 536.619141 214.272461 Q 536.318359 214.621582 535.746338 215.239258 Q 535.174316 215.856934 534.003418 217.086914 Z " fill="rgb(0, 0, 0)" fill-opacity="1.000000" />
<path d="M 541.374023 216.061035 L 543.049805 216.061035 L 543.049805 217.484375 L 541.857422 219.799316 L 540.783203 219.804688 L 541.374023 217.484375 Z " fill="rgb(0, 0, 0)" fill-opacity="1.000000" />
<path d="M 556.308594 209.862793 Q 557.592285 209.862793 558.250244 210.910156 Q 558.908203 211.957520 558.908203 214.009277 Q 558.908203 216.061035 558.250244 217.108398 Q 557.592285 218.155762 556.308594 218.155762 Q 555.024902 218.155762 554.369629 217.108398 Q 553.714355 216.061035 553.714355 214.009277 Q 553.714355 211.957520 554.369629 210.910156 Q 555.024902 209.862793 556.308594 209.862793 Z M 556.308594 217.296387 Q 557.071289 217.296387 557.444580 216.485352 Q 557.817871 215.674316 557.817871 214.009277 Q 557.817871 213.123047 557.710449 212.408691 L 555.153809 216.410156 Q 555.556641 217.296387 556.308594 217.296387 Z M 556.308594 210.722168 Q 555.551270 210.722168 555.177979 211.533203 Q 554.804688 212.344238 554.804688 214.009277 Q 554.804688 214.766602 554.906738 215.427246 L 557.409668 211.436523 Q 557.001465 210.722168 556.308594 210.722168 Z " fill="rgb(0, 0, 0)" fill-opacity="1.000000" />
<path d="M 562.374023 216.061035 L 564.049805 216.061035 L 564.049805 217.484375 L 562.857422 219.799316 L 561.783203 219.804688 L 562.374023 217.484375 Z " fill="rgb(0, 0, 0)" fill-opacity="1.000000" />
<path d="M 578.167969 213.708496 Q 578.957520 213.917969 579.376465 214.452393 Q 579.795410 214.986816 579.795410 215.787109 Q 579.795410 216.893555 579.051514 217.524658 Q 578.307617 218.155762 576.991699 218.155762 Q 576.438477 218.155762 575.863770 218.053711 Q 575.289062 217.951660 574.735840 217.758301 L 574.735840 216.678711 Q 575.283691 216.963379 575.815430 217.103027 Q 576.347168 217.242676 576.873535 217.242676 Q 577.765137 217.242676 578.243164 216.839844 Q 578.721191 216.437012 578.721191 215.679688 Q 578.721191 214.981445 578.243164 214.570557 Q 577.765137 214.159668 576.948730 214.159668 L 576.121582 214.159668 L 576.121582 213.268066 L 576.948730 213.268066 Q 577.695312 213.268066 578.114258 212.940430 Q 578.533203 212.612793 578.533203 212.027344 Q 578.533203 211.409668 578.143799 211.079346 Q 577.754395 210.749023 577.034668 210.749023 Q 576.556641 210.749023 576.046387 210.856445 Q 575.536133 210.963867 574.977539 211.178711 L 574.977539 210.179688 Q 575.627441 210.007812 576.135010 209.921875 Q 576.642578 209.835938 577.034668 209.835938 Q 578.205566 209.835938 578.906494 210.424072 Q 579.607422 211.012207 579.607422 211.984375 Q 579.607422 212.645020 579.239502 213.085449 Q 578.871582 213.525879 578.167969 213.708496 Z " fill="rgb(0, 0, 0)" fill-opacity="1.000000" />
<path d="M 589.552246 218.273926 Q 590.304199 218.273926 590.532471 218.042969 Q 590.760742 217.812012 590.760742 217.043945 L 590.760742 215.921387 Q 590.760742 215.002930 591.147461 214.651123 Q 591.534180 214.299316 592.576172 214.175781 Q 591.501953 214.030762 591.131348 213.705811 Q 590.760742 213.380859 590.760742 212.435547 L 590.760742 210.996094 Q 590.760742 210.233398 590.532471 209.999756 Q 590.304199 209.766113 589.552246 209.766113 L 589.176270 209.766113 L 589.176270 208.998047 L 589.520020 208.998047 Q 590.857422 208.998047 591.311279 209.392822 Q 591.765137 209.787598 591.765137 210.974609 L 591.765137 212.371094 Q 591.765137 213.069336 592.063232 213.429199 Q 592.361328 213.789062 593.118652 213.789062 L 593.773926 213.789062 L 593.773926 214.557129 L 593.118652 214.557129 Q 592.425781 214.557129 592.095459 214.981445 Q 591.765137 215.405762 591.765137 215.991211 L 591.765137 217.065430 Q 591.765137 218.252441 591.311279 218.649902 Q 590.857422 219.047363 589.520020 219.047363 L 589.176270 219.047363 L 589.176270 218.273926 Z " fill="rgb(0, 0, 0)" fill-opacity="1.000000" />
<path d="M 13.015625 201.498047 L 13.015625 201.981445 L 8.734863 201.981445 L 8.734863 202.013672 Q 8.691895 203.243652 9.204834 203.780762 Q 9.717773 204.317871 10.652344 204.317871 Q 11.125000 204.317871 11.640625 204.167480 Q 12.156250 204.017090 12.741699 203.710938 L 12.741699 204.693848 Q 12.177734 204.924805 11.654053 205.040283 Q 11.130371 205.155762 10.641602 205.155762 Q 9.239746 205.155762 8.450195 204.315186 Q 7.660645 203.474609 7.660645 201.997559 Q 7.660645 200.558105 8.434082 199.698730 Q 9.207520 198.839355 10.496582 198.839355 Q 11.645996 198.839355 12.309326 199.618164 Q 12.972656 200.396973 13.015625 201.498047 Z M 12.027344 201.208008 Q 11.962891 200.584961 11.573486 200.131104 Q 11.184082 199.677246 10.453613 199.677246 Q 9.739258 199.677246 9.277344 200.149902 Q 8.815430 200.622559 8.772461 201.213379 Z " fill="rgb(0, 0, 0)" fill-opacity="1.000000" />
<path d="M 20.203613 200.225098 Q 19.886719 199.978027 19.559082 199.865234 Q 19.231445 199.752441 18.839355 199.752441 Q 17.915527 199.752441 17.426758 200.332520 Q 16.937988 200.912598 16.937988 202.008301 L 16.937988 205.000000 L 15.944336 205.000000 L 15.944336 198.984375 L 16.937988 198.984375 L 16.937988 200.160645 Q 17.185059 199.521484 17.697998 199.180420 Q 18.210938 198.839355 18.914551 198.839355 Q 19.279785 198.839355 19.596680 198.930664 Q 19.913574 199.021973 20.203613 199.215332 Z " fill="rgb(0, 0, 0)" fill-opacity="1.000000" />
<path d="M 24.297852 197.276367 L 24.297852 198.984375 L 26.542969 198.984375 L 26.542969 199.752441 L 24.297852 199.752441 L 24.297852 203.018066 Q 24.297852 203.684082 24.550293 203.947266 Q 24.802734 204.210449 25.431152 204.210449 L 26.542969 204.210449 L 26.542969 205.000000 L 25.334473 205.000000 Q 24.222656 205.000000 23.766113 204.554199 Q 23.309570 204.108398 23.309570 203.018066 L 23.309570 199.752441 L 21.703613 199.752441 L 21.703613 198.984375 L 23.309570 198.984375 L 23.309570 197.276367 Z " fill="rgb(0, 0, 0)" fill-opacity="1.000000" />
<path d="M 34.015625 201.498047 L 34.015625 201.981445 L 29.734863 201.981445 L 29.734863 202.013672 Q 29.691895 203.243652 30.204834 203.780762 Q 30.717773 204.317871 31.652344 204.317871 Q 32.125000 204.317871 32.640625 204.167480 Q 33.156250 204.017090 33.741699 203.710938 L 33.741699 204.693848 Q 33.177734 204.924805 32.654053 205.040283 Q 32.130371 205.155762 31.641602 205.155762 Q 30.239746 205.155762 29.450195 204.315186 Q 28.660645 203.474609 28.660645 201.997559 Q 28.660645 200.558105 29.434082 199.698730 Q 30.207520 198.839355 31.496582 198.839355 Q 32.645996 198.839355 33.309326 199.618164 Q 33.972656 200.396973 34.015625 201.498047 Z M 33.027344 201.208008 Q 32.962891 200.584961 32.573486 200.131104 Q 32.184082 199.677246 31.453613 199.677246 Q 30.739258 199.677246 30.277344 200.149902 Q 29.815430 200.622559 29.772461 201.213379 Z " fill="rgb(0, 0, 0)" fill-opacity="1.000000" />
<path d="M 41.004883 198.984375 L 38.851074 201.863281 L 41.214355 205.000000 L 40.070312 205.000000 L 38.308594 202.588379 L 36.552246 205.000000 L 35.408203 205.000000 L 37.771484 201.863281 L 35.617676 198.984375 L 36.713379 198.984375 L 38.308594 201.159668 L 39.893066 198.984375 Z " fill="rgb(0, 0, 0)" fill-opacity="1.000000" />
<path d="M 53.930664 201.997559 Q 53.930664 200.848145 53.565430 200.262695 Q 53.200195 199.677246 52.485840 199.677246 Q 51.766113 199.677246 51.395508 200.265381 Q 51.024902 200.853516 51.024902 201.997559 Q 51.024902 203.136230 51.395508 203.727051 Q 51.766113 204.317871 52.485840 204.317871 Q 53.200195 204.317871 53.565430 203.732422 Q 53.930664 203.146973 53.930664 201.997559 Z M 51.024902 199.752441 Q 51.261230 199.312012 51.677490 199.075684 Q 52.093750 198.839355 52.641602 198.839355 Q 53.726562 198.839355 54.349609 199.674561 Q 54.972656 200.509766 54.972656 201.976074 Q 54.972656 203.463867 54.346924 204.309814 Q 53.721191 205.155762 52.630859 205.155762 Q 52.093750 205.155762 51.682861 204.922119 Q 51.271973 204.688477 51.024902 204.242676 L 51.024902 205.000000 L 50.036621 205.000000 L 50.036621 196.642578 L 51.024902 196.642578 Z " fill="rgb(0, 0, 0)" fill-opacity="1.000000" />
<path d="M 57.047363 202.722656 L 57.047363 198.995117 L 58.035645 198.995117 L 58.035645 202.722656 Q 58.035645 203.533691 58.322998 203.915039 Q 58.610352 204.296387 59.211914 204.296387 Q 59.910156 204.296387 60.280762 203.804932 Q 60.651367 203.313477 60.651367 202.395020 L 60.651367 198.995117 L 61.645020 198.995117 L 61.645020 205.000000 L 60.651367 205.000000 L 60.651367 204.097656 Q 60.388184 204.618652 59.934326 204.887207 Q 59.480469 205.155762 58.873535 205.155762 Q 57.949707 205.155762 57.498535 204.551514 Q 57.047363 203.947266 57.047363 202.722656 Z " fill="rgb(0, 0, 0)" fill-opacity="1.000000" />
<path d="M 68.709473 196.642578 L 68.709473 197.464355 L 67.586914 197.464355 Q 67.055176 197.464355 66.848389 197.681885 Q 66.641602 197.899414 66.641602 198.452637 L 66.641602 198.984375 L 68.709473 198.984375 L 68.709473 199.752441 L 66.641602 199.752441 L 66.641602 205.000000 L 65.653320 205.000000 L 65.653320 199.752441 L 64.047363 199.752441 L 64.047363 198.984375 L 65.653320 198.984375 L 65.653320 198.565430 Q 65.653320 197.577148 66.107178 197.109863 Q 66.561035 196.642578 67.522461 196.642578 Z " fill="rgb(0, 0, 0)" fill-opacity="1.000000" />
<path d="M 75.709473 196.642578 L 75.709473 197.464355 L 74.586914 197.464355 Q 74.055176 197.464355 73.848389 197.681885 Q 73.641602 197.899414 73.641602 198.452637 L 73.641602 198.984375 L 75.709473 198.984375 L 75.709473 199.752441 L 73.641602 199.752441 L 73.641602 205.000000 L 72.653320 205.000000 L 72.653320 199.752441 L 71.047363 199.752441 L 71.047363 198.984375 L 72.653320 198.984375 L 72.653320 198.565430 Q 72.653320 197.577148 73.107178 197.109863 Q 73.561035 196.642578 74.522461 196.642578 Z " fill="rgb(0, 0, 0)" fill-opacity="1.000000" />
<path d="M 83.015625 201.498047 L 83.015625 201.981445 L 78.734863 201.981445 L 78.734863 202.013672 Q 78.691895 203.243652 79.204834 203.780762 Q 79.717773 204.317871 80.652344 204.317871 Q 81.125000 204.317871 81.640625 204.167480 Q 82.156250 204.017090 82.741699 203.710938 L 82.741699 204.693848 Q 82.177734 204.924805 81.654053 205.040283 Q 81.130371 205.155762 80.641602 205.155762 Q 79.239746 205.155762 78.450195 204.315186 Q 77.660645 203.474609 77.660645 201.997559 Q 77.660645 200.558105 78.434082 199.698730 Q 79.207520 198.839355 80.496582 198.839355 Q 81.645996 198.839355 82.309326 199.618164 Q 82.972656 200.396973 83.015625 201.498047 Z M 82.027344 201.208008 Q 81.962891 200.584961 81.573486 200.131104 Q 81.184082 199.677246 80.453613 199.677246 Q 79.739258 199.677246 79.277344 200.149902 Q 78.815430 200.622559 78.772461 201.213379 Z " fill="rgb(0, 0, 0)" fill-opacity="1.000000" />
<path d="M 90.203613 200.225098 Q 89.886719 199.978027 89.559082 199.865234 Q 89.231445 199.752441 88.839355 199.752441 Q 87.915527 199.752441 87.426758 200.332520 Q 86.937988 200.912598 86.937988 202.008301 L 86.937988 205.000000 L 85.944336 205.000000 L 85.944336 198.984375 L 86.937988 198.984375 L 86.937988 200.160645 Q 87.185059 199.521484 87.697998 199.180420 Q 88.210938 198.839355 88.914551 198.839355 Q 89.279785 198.839355 89.596680 198.930664 Q 89.913574 199.021973 90.203613 199.215332 Z " fill="rgb(0, 0, 0)" fill-opacity="1.000000" />
<path d="M 93.304199 198.989746 L 94.979980 198.989746 L 94.979980 200.928711 L 93.304199 200.928711 Z M 93.304199 203.044922 L 94.979980 203.044922 L 94.979980 205.000000 L 93.304199 205.000000 Z " fill="rgb(0, 0, 0)" fill-opacity="1.000000" />
<path d="M 110.542969 205.273926 L 110.542969 206.047363 L 110.199219 206.047363 Q 108.861816 206.047363 108.407959 205.649902 Q 107.954102 205.252441 107.954102 204.065430 L 107.954102 202.991211 Q 107.954102 202.405762 107.623779 201.981445 Q 107.293457 201.557129 106.600586 201.557129 L 105.945312 201.557129 L 105.945312 200.789062 L 106.600586 200.789062 Q 107.357910 200.789062 107.656006 200.429199 Q 107.954102 200.069336 107.954102 199.371094 L 107.954102 197.974609 Q 107.954102 196.787598 108.407959 196.392822 Q 108.861816 195.998047 110.199219 195.998047 L 110.542969 195.998047 L 110.542969 196.766113 L 110.166992 196.766113 Q 109.415039 196.766113 109.186768 196.999756 Q 108.958496 197.233398 108.958496 197.996094 L 108.958496 199.435547 Q 108.958496 200.380859 108.587891 200.705811 Q 108.217285 201.030762 107.143066 201.175781 Q 108.185059 201.299316 108.571777 201.651123 Q 108.958496 202.002930 108.958496 202.921387 L 108.958496 204.043945 Q 108.958496 204.812012 109.186768 205.042969 Q 109.415039 205.273926 110.166992 205.273926 Z " fill="rgb(0, 0, 0)" fill-opacity="1.000000" />
<path d="M 119.537109 198.984375 L 120.562988 198.984375 L 122.308594 204.033203 L 124.059570 198.984375 L 125.085449 198.984375 L 122.947754 205.000000 L 121.674805 205.000000 Z " fill="rgb(0, 0, 0)" fill-opacity="1.000000" />
<path d="M 129.308594 196.862793 Q 130.592285 196.862793 131.250244 197.910156 Q 131.908203 198.957520 131.908203 201.009277 Q 131.908203 203.061035 131.250244 204.108398 Q 130.592285 205.155762 129.308594 205.155762 Q 128.024902 205.155762 127.369629 204.108398 Q 126.714355 203.061035 126.714355 201.009277 Q 126.714355 198.957520 127.369629 197.910156 Q 128.024902 196.862793 129.308594 196.862793 Z M 129.308594 204.296387 Q 130.071289 204.296387 130.444580 203.485352 Q 130.817871 202.674316 130.817871 201.009277 Q 130.817871 200.123047 130.710449 199.408691 L 128.153809 203.410156 Q 128.556641 204.296387 129.308594 204.296387 Z M 129.308594 197.722168 Q 128.551270 197.722168 128.177979 198.533203 Q 127.804688 199.344238 127.804688 201.009277 Q 127.804688 201.766602 127.906738 202.427246 L 130.409668 198.436523 Q 130.001465 197.722168 129.308594 197.722168 Z " fill="rgb(0, 0, 0)" fill-opacity="1.000000" />
<path d="M 135.374023 203.061035 L 137.049805 203.061035 L 137.049805 204.484375 L 135.857422 206.799316 L 134.783203 206.804688 L 135.374023 204.484375 Z " fill="rgb(0, 0, 0)" fill-opacity="1.000000" />
<path d="M 147.537109 198.984375 L 148.562988 198.984375 L 150.308594 204.033203 L 152.059570 198.984375 L 153.085449 198.984375 L 150.947754 205.000000 L 149.674805 205.000000 Z " fill="rgb(0, 0, 0)" fill-opacity="1.000000" />
<path d="M 155.450195 204.092285 L 157.136719 204.092285 L 157.136719 198.033691 L 155.117188 199.005859 L 155.117188 197.963867 L 157.125977 197.007812 L 158.210938 197.007812 L 158.210938 204.092285 L 159.875977 204.092285 L 159.875977 205.000000 L 155.450195 205.000000 Z " fill="rgb(0, 0, 0)" fill-opacity="1.000000" />
<path d="M 163.374023 203.061035 L 165.049805 203.061035 L 165.049805 204.484375 L 163.857422 206.799316 L 162.783203 206.804688 L 163.374023 204.484375 Z " fill="rgb(0, 0, 0)" fill-opacity="1.000000" />
<path d="M 175.537109 198.984375 L 176.562988 198.984375 L 178.308594 204.033203 L 180.059570 198.984375 L 181.085449 198.984375 L 178.947754 205.000000 L 177.674805 205.000000 Z " fill="rgb(0, 0, 0)" fill-opacity="1.000000" />
<path d="M 184.003418 204.086914 L 187.687988 204.086914 L 187.687988 205.000000 L 182.816406 205.000000 L 182.816406 204.086914 Q 183.820801 203.028809 184.572754 202.217773 Q 185.324707 201.406738 185.609375 201.073730 Q 186.146484 200.418457 186.334473 200.012939 Q 186.522461 199.607422 186.522461 199.183105 Q 186.522461 198.511719 186.127686 198.130371 Q 185.732910 197.749023 185.045410 197.749023 Q 184.556641 197.749023 184.019531 197.926270 Q 183.482422 198.103516 182.880859 198.463379 L 182.880859 197.367676 Q 183.434082 197.104492 183.968506 196.970215 Q 184.502930 196.835938 185.023926 196.835938 Q 186.200195 196.835938 186.917236 197.461670 Q 187.634277 198.087402 187.634277 199.102539 Q 187.634277 199.618164 187.395264 200.133789 Q 187.156250 200.649414 186.619141 201.272461 Q 186.318359 201.621582 185.746338 202.239258 Q 185.174316 202.856934 184.003418 204.086914 Z " fill="rgb(0, 0, 0)" fill-opacity="1.000000" />
<path d="M 191.374023 203.061035 L 193.049805 203.061035 L 193.049805 204.484375 L 191.857422 206.799316 L 190.783203 206.804688 L 191.374023 204.484375 Z " fill="rgb(0, 0, 0)" fill-opacity="1.000000" />
<path d="M 203.537109 198.984375 L 204.562988 198.984375 L 206.308594 204.033203 L 208.059570 198.984375 L 209.085449 198.984375 L 206.947754 205.000000 L 205.674805 205.000000 Z " fill="rgb(0, 0, 0)" fill-opacity="1.000000" />
<path d="M 214.167969 200.708496 Q 214.957520 200.917969 215.376465 201.452393 Q 215.795410 201.986816 215.795410 202.787109 Q 215.795410 203.893555 215.051514 204.524658 Q 214.307617 205.155762 212.991699 205.155762 Q 212.438477 205.155762 211.863770 205.053711 Q 211.289062 204.951660 210.735840 204.758301 L 210.735840 203.678711 Q 211.283691 203.963379 211.815430 204.103027 Q 212.347168 204.242676 212.873535 204.242676 Q 213.765137 204.242676 214.243164 203.839844 Q 214.721191 203.437012 214.721191 202.679688 Q 214.721191 201.981445 214.243164 201.570557 Q 213.765137 201.159668 212.948730 201.159668 L 212.121582 201.159668 L 212.121582 200.268066 L 212.948730 200.268066 Q 213.695312 200.268066 214.114258 199.940430 Q 214.533203 199.612793 214.533203 199.027344 Q 214.533203 198.409668 214.143799 198.079346 Q 213.754395 197.749023 213.034668 197.749023 Q 212.556641 197.749023 212.046387 197.856445 Q 211.536133 197.963867 210.977539 198.178711 L 210.977539 197.179688 Q 211.627441 197.007812 212.135010 196.921875 Q 212.642578 196.835938 213.034668 196.835938 Q 214.205566 196.835938 214.906494 197.424072 Q 215.607422 198.012207 215.607422 198.984375 Q 215.607422 199.645020 215.239502 200.085449 Q 214.871582 200.525879 214.167969 200.708496 Z " fill="rgb(0, 0, 0)" fill-opacity="1.000000" />
<path d="M 219.374023 203.061035 L 221.049805 203.061035 L 221.049805 204.484375 L 219.857422 206.799316 L 218.783203 206.804688 L 219.374023 204.484375 Z " fill="rgb(0, 0, 0)" fill-opacity="1.000000" />
<path d="M 231.537109 198.984375 L 232.562988 198.984375 L 234.308594 204.033203 L 236.059570 198.984375 L 237.085449 198.984375 L 234.947754 205.000000 L 233.674805 205.000000 Z " fill="rgb(0, 0, 0)" fill-opacity="1.000000" />
<path d="M 241.947754 197.969238 L 239.417969 202.207031 L 241.947754 202.207031 Z M 241.770508 196.980957 L 243.027344 196.980957 L 243.027344 202.207031 L 244.096191 202.207031 L 244.096191 203.087891 L 243.027344 203.087891 L 243.027344 205.000000 L 241.947754 205.000000 L 241.947754 203.087891 L 238.547852 203.087891 L 238.547852 202.062012 Z " fill="rgb(0, 0, 0)" fill-opacity="1.000000" />
<path d="M 247.374023 203.061035 L 249.049805 203.061035 L 249.049805 204.484375 L 247.857422 206.799316 L 246.783203 206.804688 L 247.374023 204.484375 Z " fill="rgb(0, 0, 0)" fill-opacity="1.000000" />
<path d="M 259.537109 198.984375 L 260.562988 198.984375 L 262.308594 204.033203 L 264.059570 198.984375 L 265.085449 198.984375 L 262.947754 205.000000 L 261.674805 205.000000 Z " fill="rgb(0, 0, 0)" fill-opacity="1.000000" />
<path d="M 267.111816 196.980957 L 271.172363 196.980957 L 271.172363 197.894043 L 268.100098 197.894043 L 268.100098 199.865234 Q 268.331055 199.779297 268.564697 199.739014 Q 268.798340 199.698730 269.034668 199.698730 Q 270.280762 199.698730 271.011230 200.434570 Q 271.741699 201.170410 271.741699 202.427246 Q 271.741699 203.694824 270.976318 204.425293 Q 270.210938 205.155762 268.884277 205.155762 Q 268.245117 205.155762 267.716064 205.069824 Q 267.187012 204.983887 266.768066 204.812012 L 266.768066 203.710938 Q 267.262207 203.979492 267.761719 204.111084 Q 268.261230 204.242676 268.782227 204.242676 Q 269.679199 204.242676 270.165283 203.770020 Q 270.651367 203.297363 270.651367 202.427246 Q 270.651367 201.567871 270.149170 201.089844 Q 269.646973 200.611816 268.750000 200.611816 Q 268.314941 200.611816 267.901367 200.711182 Q 267.487793 200.810547 267.111816 201.009277 Z " fill="rgb(0, 0, 0)" fill-opacity="1.000000" />
<path d="M 281.552246 205.273926 Q 282.304199 205.273926 282.532471 205.042969 Q 282.760742 204.812012 282.760742 204.043945 L 282.760742 202.921387 Q 282.760742 202.002930 283.147461 201.651123 Q 283.534180 201.299316 284.576172 201.175781 Q 283.501953 201.030762 283.131348 200.705811 Q 282.760742 200.380859 282.760742 199.435547 L 282.760742 197.996094 Q 282.760742 197.233398 282.532471 196.999756 Q 282.304199 196.766113 281.552246 196.766113 L 281.176270 196.766113 L 281.176270 195.998047 L 281.520020 195.998047 Q 282.857422 195.998047 283.311279 196.392822 Q 283.765137 196.787598 283.765137 197.974609 L 283.765137 199.371094 Q 283.765137 200.069336 284.063232 200.429199 Q 284.361328 200.789062 285.118652 200.789062 L 285.773926 200.789062 L 285.773926 201.557129 L 285.118652 201.557129 Q 284.425781 201.557129 284.095459 201.981445 Q 283.765137 202.405762 283.765137 202.991211 L 283.765137 204.065430 Q 283.765137 205.252441 283.311279 205.649902 Q 282.857422 206.047363 281.520020 206.047363 L 281.176270 206.047363 L 281.176270 205.273926 Z " fill="rgb(0, 0, 0)" fill-opacity="1.000000" />
<path d="M 357.537109 185.984375 L 358.562988 185.984375 L 360.308594 191.033203 L 362.059570 185.984375 L 363.085449 185.984375 L 360.947754 192.000000 L 359.674805 192.000000 Z " fill="rgb(0, 0, 0)" fill-opacity="1.000000" />
<path d="M 370.015625 188.498047 L 370.015625 188.981445 L 365.734863 188.981445 L 365.734863 189.013672 Q 365.691895 190.243652 366.204834 190.780762 Q 366.717773 191.317871 367.652344 191.317871 Q 368.125000 191.317871 368.640625 191.167480 Q 369.156250 191.017090 369.741699 190.710938 L 369.741699 191.693848 Q 369.177734 191.924805 368.654053 192.040283 Q 368.130371 192.155762 367.641602 192.155762 Q 366.239746 192.155762 365.450195 191.315186 Q 364.660645 190.474609 364.660645 188.997559 Q 364.660645 187.558105 365.434082 186.698730 Q 366.207520 185.839355 367.496582 185.839355 Q 368.645996 185.839355 369.309326 186.618164 Q 369.972656 187.396973 370.015625 188.498047 Z M 369.027344 188.208008 Q 368.962891 187.584961 368.573486 187.131104 Q 368.184082 186.677246 367.453613 186.677246 Q 366.739258 186.677246 366.277344 187.149902 Q 365.815430 187.622559 365.772461 188.213379 Z " fill="rgb(0, 0, 0)" fill-opacity="1.000000" />
<path d="M 377.203613 187.225098 Q 376.886719 186.978027 376.559082 186.865234 Q 376.231445 186.752441 375.839355 186.752441 Q 374.915527 186.752441 374.426758 187.332520 Q 373.937988 187.912598 373.937988 189.008301 L 373.937988 192.000000 L 372.944336 192.000000 L 372.944336 185.984375 L 373.937988 185.984375 L 373.937988 187.160645 Q 374.185059 186.521484 374.697998 186.180420 Q 375.210938 185.839355 375.914551 185.839355 Q 376.279785 185.839355 376.596680 185.930664 Q 376.913574 186.021973 377.203613 186.215332 Z " fill="rgb(0, 0, 0)" fill-opacity="1.000000" />
<path d="M 381.297852 184.276367 L 381.297852 185.984375 L 383.542969 185.984375 L 383.542969 186.752441 L 381.297852 186.752441 L 381.297852 190.018066 Q 381.297852 190.684082 381.550293 190.947266 Q 381.802734 191.210449 382.431152 191.210449 L 383.542969 191.210449 L 383.542969 192.000000 L 382.334473 192.000000 Q 381.222656 192.000000 380.766113 191.554199 Q 380.309570 191.108398 380.309570 190.018066 L 380.309570 186.752441 L 378.703613 186.752441 L 378.703613 185.984375 L 380.309570 185.984375 L 380.309570 184.276367 Z " fill="rgb(0, 0, 0)" fill-opacity="1.000000" />
<path d="M 391.015625 188.498047 L 391.015625 188.981445 L 386.734863 188.981445 L 386.734863 189.013672 Q 386.691895 190.243652 387.204834 190.780762 Q 387.717773 191.317871 388.652344 191.317871 Q 389.125000 191.317871 389.640625 191.167480 Q 390.156250 191.017090 390.741699 190.710938 L 390.741699 191.693848 Q 390.177734 191.924805 389.654053 192.040283 Q 389.130371 192.155762 388.641602 192.155762 Q 387.239746 192.155762 386.450195 191.315186 Q 385.660645 190.474609 385.660645 188.997559 Q 385.660645 187.558105 386.434082 186.698730 Q 387.207520 185.839355 388.496582 185.839355 Q 389.645996 185.839355 390.309326 186.618164 Q 390.972656 187.396973 391.015625 188.498047 Z M 390.027344 188.208008 Q 389.962891 187.584961 389.573486 187.131104 Q 389.184082 186.677246 388.453613 186.677246 Q 387.739258 186.677246 387.277344 187.149902 Q 386.815430 187.622559 386.772461 188.213379 Z " fill="rgb(0, 0, 0)" fill-opacity="1.000000" />
<path d="M 398.004883 185.984375 L 395.851074 188.863281 L 398.214355 192.000000 L 397.070312 192.000000 L 395.308594 189.588379 L 393.552246 192.000000 L 392.408203 192.000000 L 394.771484 188.863281 L 392.617676 185.984375 L 393.713379 185.984375 L 395.308594 188.159668 L 396.893066 185.984375 Z " fill="rgb(0, 0, 0)" fill-opacity="1.000000" />
<path d="M 410.930664 188.997559 Q 410.930664 187.848145 410.565430 187.262695 Q 410.200195 186.677246 409.485840 186.677246 Q 408.766113 186.677246 408.395508 187.265381 Q 408.024902 187.853516 408.024902 188.997559 Q 408.024902 190.136230 408.395508 190.727051 Q 408.766113 191.317871 409.485840 191.317871 Q 410.200195 191.317871 410.565430 190.732422 Q 410.930664 190.146973 410.930664 188.997559 Z M 408.024902 186.752441 Q 408.261230 186.312012 408.677490 186.075684 Q 409.093750 185.839355 409.641602 185.839355 Q 410.726562 185.839355 411.349609 186.674561 Q 411.972656 187.509766 411.972656 188.976074 Q 411.972656 190.463867 411.346924 191.309814 Q 410.721191 192.155762 409.630859 192.155762 Q 409.093750 192.155762 408.682861 191.922119 Q 408.271973 191.688477 408.024902 191.242676 L 408.024902 192.000000 L 407.036621 192.000000 L 407.036621 183.642578 L 408.024902 183.642578 Z " fill="rgb(0, 0, 0)" fill-opacity="1.000000" />
<path d="M 414.047363 189.722656 L 414.047363 185.995117 L 415.035645 185.995117 L 415.035645 189.722656 Q 415.035645 190.533691 415.322998 190.915039 Q 415.610352 191.296387 416.211914 191.296387 Q 416.910156 191.296387 417.280762 190.804932 Q 417.651367 190.313477 417.651367 189.395020 L 417.651367 185.995117 L 418.645020 185.995117 L 418.645020 192.000000 L 417.651367 192.000000 L 417.651367 191.097656 Q 417.388184 191.618652 416.934326 191.887207 Q 416.480469 192.155762 415.873535 192.155762 Q 414.949707 192.155762 414.498535 191.551514 Q 414.047363 190.947266 414.047363 189.722656 Z " fill="rgb(0, 0, 0)" fill-opacity="1.000000" />
<path d="M 425.709473 183.642578 L 425.709473 184.464355 L 424.586914 184.464355 Q 424.055176 184.464355 423.848389 184.681885 Q 423.641602 184.899414 423.641602 185.452637 L 423.641602 185.984375 L 425.709473 185.984375 L 425.709473 186.752441 L 423.641602 186.752441 L 423.641602 192.000000 L 422.653320 192.000000 L 422.653320 186.752441 L 421.047363 186.752441 L 421.047363 185.984375 L 422.653320 185.984375 L 422.653320 185.565430 Q 422.653320 184.577148 423.107178 184.109863 Q 423.561035 183.642578 424.522461 183.642578 Z " fill="rgb(0, 0, 0)" fill-opacity="1.000000" />
<path d="M 432.709473 183.642578 L 432.709473 184.464355 L 431.586914 184.464355 Q 431.055176 184.464355 430.848389 184.681885 Q 430.641602 184.899414 430.641602 185.452637 L 430.641602 185.984375 L 432.709473 185.984375 L 432.709473 186.752441 L 430.641602 186.752441 L 430.641602 192.000000 L 429.653320 192.000000 L 429.653320 186.752441 L 428.047363 186.752441 L 428.047363 185.984375 L 429.653320 185.984375 L 429.653320 185.565430 Q 429.653320 184.577148 430.107178 184.109863 Q 430.561035 183.642578 431.522461 183.642578 Z " fill="rgb(0, 0, 0)" fill-opacity="1.000000" />
<path d="M 440.015625 188.498047 L 440.015625 188.981445 L 435.734863 188.981445 L 435.734863 189.013672 Q 435.691895 190.243652 436.204834 190.780762 Q 436.717773 191.317871 437.652344 191.317871 Q 438.125000 191.317871 438.640625 191.167480 Q 439.156250 191.017090 439.741699 190.710938 L 439.741699 191.693848 Q 439.177734 191.924805 438.654053 192.040283 Q 438.130371 192.155762 437.641602 192.155762 Q 436.239746 192.155762 435.450195 191.315186 Q 434.660645 190.474609 434.660645 188.997559 Q 434.660645 187.558105 435.434082 186.698730 Q 436.207520 185.839355 437.496582 185.839355 Q 438.645996 185.839355 439.309326 186.618164 Q 439.972656 187.396973 440.015625 188.498047 Z M 439.027344 188.208008 Q 438.962891 187.584961 438.573486 187.131104 Q 438.184082 186.677246 437.453613 186.677246 Q 436.739258 186.677246 436.277344 187.149902 Q 435.815430 187.622559 435.772461 188.213379 Z " fill="rgb(0, 0, 0)" fill-opacity="1.000000" />
<path d="M 447.203613 187.225098 Q 446.886719 186.978027 446.559082 186.865234 Q 446.231445 186.752441 445.839355 186.752441 Q 444.915527 186.752441 444.426758 187.332520 Q 443.937988 187.912598 443.937988 189.008301 L 443.937988 192.000000 L 442.944336 192.000000 L 442.944336 185.984375 L 443.937988 185.984375 L 443.937988 187.160645 Q 444.185059 186.521484 444.697998 186.180420 Q 445.210938 185.839355 445.914551 185.839355 Q 446.279785 185.839355 446.596680 185.930664 Q 446.913574 186.021973 447.203613 186.215332 Z " fill="rgb(0, 0, 0)" fill-opacity="1.000000" />
<path d="M 450.304199 185.989746 L 451.979980 185.989746 L 451.979980 187.928711 L 450.304199 187.928711 Z M 450.304199 190.044922 L 451.979980 190.044922 L 451.979980 192.000000 L 450.304199 192.000000 Z " fill="rgb(0, 0, 0)" fill-opacity="1.000000" />
<path d="M 467.542969 192.273926 L 467.542969 193.047363 L 467.199219 193.047363 Q 465.861816 193.047363 465.407959 192.649902 Q 464.954102 192.252441 464.954102 191.065430 L 464.954102 189.991211 Q 464.954102 189.405762 464.623779 188.981445 Q 464.293457 188.557129 463.600586 188.557129 L 462.945312 188.557129 L 462.945312 187.789062 L 463.600586 187.789062 Q 464.357910 187.789062 464.656006 187.429199 Q 464.954102 187.069336 464.954102 186.371094 L 464.954102 184.974609 Q 464.954102 183.787598 465.407959 183.392822 Q 465.861816 182.998047 467.199219 182.998047 L 467.542969 182.998047 L 467.542969 183.766113 L 467.166992 183.766113 Q 466.415039 183.766113 466.186768 183.999756 Q 465.958496 184.233398 465.958496 184.996094 L 465.958496 186.435547 Q 465.958496 187.380859 465.587891 187.705811 Q 465.217285 188.030762 464.143066 188.175781 Q 465.185059 188.299316 465.571777 188.651123 Q 465.958496 189.002930 465.958496 189.921387 L 465.958496 191.043945 Q 465.958496 191.812012 466.186768 192.042969 Q 466.415039 192.273926 467.166992 192.273926 Z " fill="rgb(0, 0, 0)" fill-opacity="1.000000" />
<path d="M 476.537109 185.984375 L 477.562988 185.984375 L 479.308594 191.033203 L 481.059570 185.984375 L 482.085449 185.984375 L 479.947754 192.000000 L 478.674805 192.000000 Z " fill="rgb(0, 0, 0)" fill-opacity="1.000000" />
<path d="M 486.308594 183.862793 Q 487.592285 183.862793 488.250244 184.910156 Q 488.908203 185.957520 488.908203 188.009277 Q 488.908203 190.061035 488.250244 191.108398 Q 487.592285 192.155762 486.308594 192.155762 Q 485.024902 192.155762 484.369629 191.108398 Q 483.714355 190.061035 483.714355 188.009277 Q 483.714355 185.957520 484.369629 184.910156 Q 485.024902 183.862793 486.308594 183.862793 Z M 486.308594 191.296387 Q 487.071289 191.296387 487.444580 190.485352 Q 487.817871 189.674316 487.817871 188.009277 Q 487.817871 187.123047 487.710449 186.408691 L 485.153809 190.410156 Q 485.556641 191.296387 486.308594 191.296387 Z M 486.308594 184.722168 Q 485.551270 184.722168 485.177979 185.533203 Q 484.804688 186.344238 484.804688 188.009277 Q 484.804688 188.766602 484.906738 189.427246 L 487.409668 185.436523 Q 487.001465 184.722168 486.308594 184.722168 Z " fill="rgb(0, 0, 0)" fill-opacity="1.000000" />
<path d="M 492.374023 190.061035 L 494.049805 190.061035 L 494.049805 191.484375 L 492.857422 193.799316 L 491.783203 193.804688 L 492.374023 191.484375 Z " fill="rgb(0, 0, 0)" fill-opacity="1.000000" />
<path d="M 504.537109 185.984375 L 505.562988 185.984375 L 507.308594 191.033203 L 509.059570 185.984375 L 510.085449 185.984375 L 507.947754 192.000000 L 506.674805 192.000000 Z " fill="rgb(0, 0, 0)" fill-opacity="1.000000" />
<path d="M 512.450195 191.092285 L 514.136719 191.092285 L 514.136719 185.033691 L 512.117188 186.005859 L 512.117188 184.963867 L 514.125977 184.007812 L 515.210938 184.007812 L 515.210938 191.092285 L 516.875977 191.092285 L 516.875977 192.000000 L 512.450195 192.000000 Z " fill="rgb(0, 0, 0)" fill-opacity="1.000000" />
<path d="M 520.374023 190.061035 L 522.049805 190.061035 L 522.049805 191.484375 L 520.857422 193.799316 L 519.783203 193.804688 L 520.374023 191.484375 Z " fill="rgb(0, 0, 0)" fill-opacity="1.000000" />
<path d="M 532.537109 185.984375 L 533.562988 185.984375 L 535.308594 191.033203 L 537.059570 185.984375 L 538.085449 185.984375 L 535.947754 192.000000 L 534.674805 192.000000 Z " fill="rgb(0, 0, 0)" fill-opacity="1.000000" />
<path d="M 541.003418 191.086914 L 544.687988 191.086914 L 544.687988 192.000000 L 539.816406 192.000000 L 539.816406 191.086914 Q 540.820801 190.028809 541.572754 189.217773 Q 542.324707 188.406738 542.609375 188.073730 Q 543.146484 187.418457 543.334473 187.012939 Q 543.522461 186.607422 543.522461 186.183105 Q 543.522461 185.511719 543.127686 185.130371 Q 542.732910 184.749023 542.045410 184.749023 Q 541.556641 184.749023 541.019531 184.926270 Q 540.482422 185.103516 539.880859 185.463379 L 539.880859 184.367676 Q 540.434082 184.104492 540.968506 183.970215 Q 541.502930 183.835938 542.023926 183.835938 Q 543.200195 183.835938 543.917236 184.461670 Q 544.634277 185.087402 544.634277 186.102539 Q 544.634277 186.618164 544.395264 187.133789 Q 544.156250 187.649414 543.619141 188.272461 Q 543.318359 188.621582 542.746338 189.239258 Q 542.174316 189.856934 541.003418 191.086914 Z " fill="rgb(0, 0, 0)" fill-opacity="1.000000" />
<path d="M 548.374023 190.061035 L 550.049805 190.061035 L 550.049805 191.484375 L 548.857422 193.799316 L 547.783203 193.804688 L 548.374023 191.484375 Z " fill="rgb(0, 0, 0)" fill-opacity="1.000000" />
<path d="M 560.537109 185.984375 L 561.562988 185.984375 L 563.308594 191.033203 L 565.059570 185.984375 L 566.085449 185.984375 L 563.947754 192.000000 L 562.674805 192.000000 Z " fill="rgb(0, 0, 0)" fill-opacity="1.000000" />
<path d="M 571.167969 187.708496 Q 571.957520 187.917969 572.376465 188.452393 Q 572.795410 188.986816 572.795410 189.787109 Q 572.795410 190.893555 572.051514 191.524658 Q 571.307617 192.155762 569.991699 192.155762 Q 569.438477 192.155762 568.863770 192.053711 Q 568.289062 191.951660 567.735840 191.758301 L 567.735840 190.678711 Q 568.283691 190.963379 568.815430 191.103027 Q 569.347168 191.242676 569.873535 191.242676 Q 570.765137 191.242676 571.243164 190.839844 Q 571.721191 190.437012 571.721191 189.679688 Q 571.721191 188.981445 571.243164 188.570557 Q 570.765137 188.159668 569.948730 188.159668 L 569.121582 188.159668 L 569.121582 187.268066 L 569.948730 187.268066 Q 570.695312 187.268066 571.114258 186.940430 Q 571.533203 186.612793 571.533203 186.027344 Q 571.533203 185.409668 571.143799 185.079346 Q 570.754395 184.749023 570.034668 184.749023 Q 569.556641 184.749023 569.046387 184.856445 Q 568.536133 184.963867 567.977539 185.178711 L 567.977539 184.179688 Q 568.627441 184.007812 569.135010 183.921875 Q 569.642578 183.835938 570.034668 183.835938 Q 571.205566 183.835938 571.906494 184.424072 Q 572.607422 185.012207 572.607422 185.984375 Q 572.607422 186.645020 572.239502 187.085449 Q 571.871582 187.525879 571.167969 187.708496 Z " fill="rgb(0, 0, 0)" fill-opacity="1.000000" />
<path d="M 582.552246 192.273926 Q 583.304199 192.273926 583.532471 192.042969 Q 583.760742 191.812012 583.760742 191.043945 L 583.760742 189.921387 Q 583.760742 189.002930 584.147461 188.651123 Q 584.534180 188.299316 585.576172 188.175781 Q 584.501953 188.030762 584.131348 187.705811 Q 583.760742 187.380859 583.760742 186.435547 L 583.760742 184.996094 Q 583.760742 184.233398 583.532471 183.999756 Q 583.304199 183.766113 582.552246 183.766113 L 582.176270 183.766113 L 582.176270 182.998047 L 582.520020 182.998047 Q 583.857422 182.998047 584.311279 183.392822 Q 584.765137 183.787598 584.765137 184.974609 L 584.765137 186.371094 Q 584.765137 187.069336 585.063232 187.429199 Q 585.361328 187.789062 586.118652 187.789062 L 586.773926 187.789062 L 586.773926 188.557129 L 586.118652 188.557129 Q 585.425781 188.557129 585.095459 188.981445 Q 584.765137 189.405762 584.765137 189.991211 L 584.765137 191.065430 Q 584.765137 192.252441 584.311279 192.649902 Q 583.857422 193.047363 582.520020 193.047363 L 582.176270 193.047363 L 582.176270 192.273926 Z " fill="rgb(0, 0, 0)" fill-opacity="1.000000" />
<path d="M 91.537109 120.984375 L 92.562988 120.984375 L 94.308594 126.033203 L 96.059570 120.984375 L 97.085449 120.984375 L 94.947754 127.000000 L 93.674805 127.000000 Z " fill="rgb(0, 0, 0)" fill-opacity="1.000000" />
<path d="M 112.537109 133.984375 L 113.562988 133.984375 L 115.308594 139.033203 L 117.059570 133.984375 L 118.085449 133.984375 L 115.947754 140.000000 L 114.674805 140.000000 Z " fill="rgb(0, 0, 0)" fill-opacity="1.000000" />
<path d="M 122.308594 131.862793 Q 123.592285 131.862793 124.250244 132.910156 Q 124.908203 133.957520 124.908203 136.009277 Q 124.908203 138.061035 124.250244 139.108398 Q 123.592285 140.155762 122.308594 140.155762 Q 121.024902 140.155762 120.369629 139.108398 Q 119.714355 138.061035 119.714355 136.009277 Q 119.714355 133.957520 120.369629 132.910156 Q 121.024902 131.862793 122.308594 131.862793 Z M 122.308594 139.296387 Q 123.071289 139.296387 123.444580 138.485352 Q 123.817871 137.674316 123.817871 136.009277 Q 123.817871 135.123047 123.710449 134.408691 L 121.153809 138.410156 Q 121.556641 139.296387 122.308594 139.296387 Z M 122.308594 132.722168 Q 121.551270 132.722168 121.177979 133.533203 Q 120.804688 134.344238 120.804688 136.009277 Q 120.804688 136.766602 120.906738 137.427246 L 123.409668 133.436523 Q 123.001465 132.722168 122.308594 132.722168 Z " fill="rgb(0, 0, 0)" fill-opacity="1.000000" />
<path d="M 168.537109 133.984375 L 169.562988 133.984375 L 171.308594 139.033203 L 173.059570 133.984375 L 174.085449 133.984375 L 171.947754 140.000000 L 170.674805 140.000000 Z " fill="rgb(0, 0, 0)" fill-opacity="1.000000" />
<path d="M 176.450195 139.092285 L 178.136719 139.092285 L 178.136719 133.033691 L 176.117188 134.005859 L 176.117188 132.963867 L 178.125977 132.007812 L 179.210938 132.007812 L 179.210938 139.092285 L 180.875977 139.092285 L 180.875977 140.000000 L 176.450195 140.000000 Z " fill="rgb(0, 0, 0)" fill-opacity="1.000000" />
<path d="M 413.537109 133.984375 L 414.562988 133.984375 L 416.308594 139.033203 L 418.059570 133.984375 L 419.085449 133.984375 L 416.947754 140.000000 L 415.674805 140.000000 Z " fill="rgb(0, 0, 0)" fill-opacity="1.000000" />
<path d="M 423.308594 131.862793 Q 424.592285 131.862793 425.250244 132.910156 Q 425.908203 133.957520 425.908203 136.009277 Q 425.908203 138.061035 425.250244 139.108398 Q 424.592285 140.155762 423.308594 140.155762 Q 422.024902 140.155762 421.369629 139.108398 Q 420.714355 138.061035 420.714355 136.009277 Q 420.714355 133.957520 421.369629 132.910156 Q 422.024902 131.862793 423.308594 131.862793 Z M 423.308594 139.296387 Q 424.071289 139.296387 424.444580 138.485352 Q 424.817871 137.674316 424.817871 136.009277 Q 424.817871 135.123047 424.710449 134.408691 L 422.153809 138.410156 Q 422.556641 139.296387 423.308594 139.296387 Z M 423.308594 132.722168 Q 422.551270 132.722168 422.177979 133.533203 Q 421.804688 134.344238 421.804688 136.009277 Q 421.804688 136.766602 421.906738 137.427246 L 424.409668 133.436523 Q 424.001465 132.722168 423.308594 132.722168 Z " fill="rgb(0, 0, 0)" fill-opacity="1.000000" />
<path d="M 469.537109 133.984375 L 470.562988 133.984375 L 472.308594 139.033203 L 474.059570 133.984375 L 475.085449 133.984375 L 472.947754 140.000000 L 471.674805 140.000000 Z " fill="rgb(0, 0, 0)" fill-opacity="1.000000" />
<path d="M 477.450195 139.092285 L 479.136719 139.092285 L 479.136719 133.033691 L 477.117188 134.005859 L 477.117188 132.963867 L 479.125977 132.007812 L 480.210938 132.007812 L 480.210938 139.092285 L 481.875977 139.092285 L 481.875977 140.000000 L 477.450195 140.000000 Z " fill="rgb(0, 0, 0)" fill-opacity="1.000000" />
<path d="M 101.947754 119.969238 L 99.417969 124.207031 L 101.947754 124.207031 Z M 101.770508 118.980957 L 103.027344 118.980957 L 103.027344 124.207031 L 104.096191 124.207031 L 104.096191 125.087891 L 103.027344 125.087891 L 103.027344 127.000000 L 101.947754 127.000000 L 101.947754 125.087891 L 98.547852 125.087891 L 98.547852 124.062012 Z " fill="rgb(0, 0, 0)" fill-opacity="1.000000" />
<path d="M 112.032227 124.142578 L 115.308594 120.866211 L 118.590332 124.142578 L 115.308594 127.418945 Z " fill="rgb(0, 0, 0)" fill-opacity="1.000000" />
<path d="M 118.892578 124.335938 L 118.892578 123.412109 L 125.729980 123.412109 L 125.729980 124.335938 Z " fill="rgb(0, 0, 0)" fill-opacity="1.000000" />
<path d="M 125.892578 124.335938 L 125.892578 123.412109 L 132.729980 123.412109 L 132.729980 124.335938 Z " fill="rgb(0, 0, 0)" fill-opacity="1.000000" />
<path d="M 132.892578 124.335938 L 132.892578 123.412109 L 139.729980 123.412109 L 139.729980 124.335938 Z " fill="rgb(0, 0, 0)" fill-opacity="1.000000" />
<path d="M 139.892578 124.335938 L 139.892578 123.412109 L 146.729980 123.412109 L 146.729980 124.335938 Z " fill="rgb(0, 0, 0)" fill-opacity="1.000000" />
<path d="M 146.892578 124.335938 L 146.892578 123.412109 L 153.729980 123.412109 L 153.729980 124.335938 Z " fill="rgb(0, 0, 0)" fill-opacity="1.000000" />
<path d="M 153.892578 124.335938 L 153.892578 123.412109 L 160.729980 123.412109 L 160.729980 124.335938 Z " fill="rgb(0, 0, 0)" fill-opacity="1.000000" />
<path d="M 160.892578 124.335938 L 160.892578 123.412109 L 167.729980 123.412109 L 167.729980 124.335938 Z " fill="rgb(0, 0, 0)" fill-opacity="1.000000" />
<path d="M 168.032227 124.142578 L 171.308594 120.866211 L 174.590332 124.142578 L 171.308594 127.418945 Z " fill="rgb(0, 0, 0)" fill-opacity="1.000000" />
<path d="M 392.537109 120.984375 L 393.562988 120.984375 L 395.308594 126.033203 L 397.059570 120.984375 L 398.085449 120.984375 L 395.947754 127.000000 L 394.674805 127.000000 Z " fill="rgb(0, 0, 0)" fill-opacity="1.000000" />
<path d="M 402.308594 118.862793 Q 403.592285 118.862793 404.250244 119.910156 Q 404.908203 120.957520 404.908203 123.009277 Q 404.908203 125.061035 404.250244 126.108398 Q 403.592285 127.155762 402.308594 127.155762 Q 401.024902 127.155762 400.369629 126.108398 Q 399.714355 125.061035 399.714355 123.009277 Q 399.714355 120.957520 400.369629 119.910156 Q 401.024902 118.862793 402.308594 118.862793 Z M 402.308594 126.296387 Q 403.071289 126.296387 403.444580 125.485352 Q 403.817871 124.674316 403.817871 123.009277 Q 403.817871 122.123047 403.710449 121.408691 L 401.153809 125.410156 Q 401.556641 126.296387 402.308594 126.296387 Z M 402.308594 119.722168 Q 401.551270 119.722168 401.177979 120.533203 Q 400.804688 121.344238 400.804688 123.009277 Q 400.804688 123.766602 400.906738 124.427246 L 403.409668 120.436523 Q 403.001465 119.722168 402.308594 119.722168 Z " fill="rgb(0, 0, 0)" fill-opacity="1.000000" />
<path d="M 413.032227 124.142578 L 416.308594 120.866211 L 419.590332 124.142578 L 416.308594 127.418945 Z " fill="rgb(0, 0, 0)" fill-opacity="1.000000" />
<path d="M 419.892578 124.335938 L 419.892578 123.412109 L 426.729980 123.412109 L 426.729980 124.335938 Z " fill="rgb(0, 0, 0)" fill-opacity="1.000000" />
<path d="M 426.892578 124.335938 L 426.892578 123.412109 L 433.729980 123.412109 L 433.729980 124.335938 Z " fill="rgb(0, 0, 0)" fill-opacity="1.000000" />
<path d="M 433.892578 124.335938 L 433.892578 123.412109 L 440.729980 123.412109 L 440.729980 124.335938 Z " fill="rgb(0, 0, 0)" fill-opacity="1.000000" />
<path d="M 440.892578 124.335938 L 440.892578 123.412109 L 447.729980 123.412109 L 447.729980 124.335938 Z " fill="rgb(0, 0, 0)" fill-opacity="1.000000" />
<path d="M 447.892578 124.335938 L 447.892578 123.412109 L 454.729980 123.412109 L 454.729980 124.335938 Z " fill="rgb(0, 0, 0)" fill-opacity="1.000000" />
<path d="M 454.892578 124.335938 L 454.892578 123.412109 L 461.729980 123.412109 L 461.729980 124.335938 Z " fill="rgb(0, 0, 0)" fill-opacity="1.000000" />
<path d="M 461.892578 124.335938 L 461.892578 123.412109 L 468.729980 123.412109 L 468.729980 124.335938 Z " fill="rgb(0, 0, 0)" fill-opacity="1.000000" />
<path d="M 469.032227 124.142578 L 472.308594 120.866211 L 475.590332 124.142578 L 472.308594 127.418945 Z " fill="rgb(0, 0, 0)" fill-opacity="1.000000" />
<path d="M 114.878906 39.319336 L 114.878906 25.300781 L 115.738281 25.300781 L 115.738281 39.319336 Z " fill="rgb(0, 0, 0)" fill-opacity="1.000000" />
<path d="M 114.878906 52.319336 L 114.878906 38.300781 L 115.738281 38.300781 L 115.738281 52.319336 Z " fill="rgb(0, 0, 0)" fill-opacity="1.000000" />
<path d="M 114.878906 65.319336 L 114.878906 51.300781 L 115.738281 51.300781 L 115.738281 65.319336 Z " fill="rgb(0, 0, 0)" fill-opacity="1.000000" />
<path d="M 114.878906 78.319336 L 114.878906 64.300781 L 115.738281 64.300781 L 115.738281 78.319336 Z " fill="rgb(0, 0, 0)" fill-opacity="1.000000" />
<path d="M 114.878906 91.319336 L 114.878906 77.300781 L 115.738281 77.300781 L 115.738281 91.319336 Z " fill="rgb(0, 0, 0)" fill-opacity="1.000000" />
<path d="M 114.878906 104.319336 L 114.878906 90.300781 L 115.738281 90.300781 L 115.738281 104.319336 Z " fill="rgb(0, 0, 0)" fill-opacity="1.000000" />
<path d="M 114.878906 117.319336 L 114.878906 103.300781 L 115.738281 103.300781 L 115.738281 117.319336 Z " fill="rgb(0, 0, 0)" fill-opacity="1.000000" />
<path d="M 118.414551 117.319336 L 125.251953 103.300781 L 126.208008 103.300781 L 119.370605 117.319336 Z " fill="rgb(0, 0, 0)" fill-opacity="1.000000" />
<path d="M 170.878906 117.319336 L 170.878906 103.300781 L 171.738281 103.300781 L 171.738281 117.319336 Z " fill="rgb(0, 0, 0)" fill-opacity="1.000000" />
<path d="M 415.878906 117.319336 L 415.878906 103.300781 L 416.738281 103.300781 L 416.738281 117.319336 Z " fill="rgb(0, 0, 0)" fill-opacity="1.000000" />
<path d="M 419.414551 117.319336 L 426.251953 103.300781 L 427.208008 103.300781 L 420.370605 117.319336 Z " fill="rgb(0, 0, 0)" fill-opacity="1.000000" />
<path d="M 471.878906 117.319336 L 471.878906 103.300781 L 472.738281 103.300781 L 472.738281 117.319336 Z " fill="rgb(0, 0, 0)" fill-opacity="1.000000" />
<path d="M 125.414551 104.319336 L 132.251953 90.300781 L 133.208008 90.300781 L 126.370605 104.319336 Z " fill="rgb(0, 0, 0)" fill-opacity="1.000000" />
<path d="M 170.878906 104.319336 L 170.878906 90.300781 L 171.738281 90.300781 L 171.738281 104.319336 Z " fill="rgb(0, 0, 0)" fill-opacity="1.000000" />
<path d="M 415.878906 104.319336 L 415.878906 90.300781 L 416.738281 90.300781 L 416.738281 104.319336 Z " fill="rgb(0, 0, 0)" fill-opacity="1.000000" />
<path d="M 426.414551 104.319336 L 433.251953 90.300781 L 434.208008 90.300781 L 427.370605 104.319336 Z " fill="rgb(0, 0, 0)" fill-opacity="1.000000" />
<path d="M 471.878906 104.319336 L 471.878906 90.300781 L 472.738281 90.300781 L 472.738281 104.319336 Z " fill="rgb(0, 0, 0)" fill-opacity="1.000000" />
<path d="M 132.414551 91.319336 L 139.251953 77.300781 L 140.208008 77.300781 L 133.370605 91.319336 Z " fill="rgb(0, 0, 0)" fill-opacity="1.000000" />
<path d="M 170.878906 91.319336 L 170.878906 77.300781 L 171.738281 77.300781 L 171.738281 91.319336 Z " fill="rgb(0, 0, 0)" fill-opacity="1.000000" />
<path d="M 415.878906 91.319336 L 415.878906 77.300781 L 416.738281 77.300781 L 416.738281 91.319336 Z " fill="rgb(0, 0, 0)" fill-opacity="1.000000" />
<path d="M 433.414551 91.319336 L 440.251953 77.300781 L 441.208008 77.300781 L 434.370605 91.319336 Z " fill="rgb(0, 0, 0)" fill-opacity="1.000000" />
<path d="M 471.878906 91.319336 L 471.878906 77.300781 L 472.738281 77.300781 L 472.738281 91.319336 Z " fill="rgb(0, 0, 0)" fill-opacity="1.000000" />
<path d="M 139.414551 78.319336 L 146.251953 64.300781 L 147.208008 64.300781 L 140.370605 78.319336 Z " fill="rgb(0, 0, 0)" fill-opacity="1.000000" />
<path d="M 170.878906 78.319336 L 170.878906 64.300781 L 171.738281 64.300781 L 171.738281 78.319336 Z " fill="rgb(0, 0, 0)" fill-opacity="1.000000" />
<path d="M 415.878906 78.319336 L 415.878906 64.300781 L 416.738281 64.300781 L 416.738281 78.319336 Z " fill="rgb(0, 0, 0)" fill-opacity="1.000000" />
<path d="M 440.414551 78.319336 L 447.251953 64.300781 L 448.208008 64.300781 L 441.370605 78.319336 Z " fill="rgb(0, 0, 0)" fill-opacity="1.000000" />
<path d="M 471.878906 78.319336 L 471.878906 64.300781 L 472.738281 64.300781 L 472.738281 78.319336 Z " fill="rgb(0, 0, 0)" fill-opacity="1.000000" />
<path d="M 146.414551 65.319336 L 153.251953 51.300781 L 154.208008 51.300781 L 147.370605 65.319336 Z " fill="rgb(0, 0, 0)" fill-opacity="1.000000" />
<path d="M 170.878906 65.319336 L 170.878906 51.300781 L 171.738281 51.300781 L 171.738281 65.319336 Z " fill="rgb(0, 0, 0)" fill-opacity="1.000000" />
<path d="M 415.878906 65.319336 L 415.878906 51.300781 L 416.738281 51.300781 L 416.738281 65.319336 Z " fill="rgb(0, 0, 0)" fill-opacity="1.000000" />
<path d="M 447.414551 65.319336 L 454.251953 51.300781 L 455.208008 51.300781 L 448.370605 65.319336 Z " fill="rgb(0, 0, 0)" fill-opacity="1.000000" />
<path d="M 471.878906 65.319336 L 471.878906 51.300781 L 472.738281 51.300781 L 472.738281 65.319336 Z " fill="rgb(0, 0, 0)" fill-opacity="1.000000" />
<path d="M 153.414551 52.319336 L 160.251953 38.300781 L 161.208008 38.300781 L 154.370605 52.319336 Z " fill="rgb(0, 0, 0)" fill-opacity="1.000000" />
<path d="M 170.878906 52.319336 L 170.878906 38.300781 L 171.738281 38.300781 L 171.738281 52.319336 Z " fill="rgb(0, 0, 0)" fill-opacity="1.000000" />
<path d="M 415.878906 52.319336 L 415.878906 38.300781 L 416.738281 38.300781 L 416.738281 52.319336 Z " fill="rgb(0, 0, 0)" fill-opacity="1.000000" />
<path d="M 454.414551 52.319336 L 461.251953 38.300781 L 462.208008 38.300781 L 455.370605 52.319336 Z " fill="rgb(0, 0, 0)" fill-opacity="1.000000" />
<path d="M 471.878906 52.319336 L 471.878906 38.300781 L 472.738281 38.300781 L 472.738281 52.319336 Z " fill="rgb(0, 0, 0)" fill-opacity="1.000000" />
<path d="M 160.414551 39.319336 L 167.251953 25.300781 L 168.208008 25.300781 L 161.370605 39.319336 Z " fill="rgb(0, 0, 0)" fill-opacity="1.000000" />
<path d="M 170.878906 39.319336 L 170.878906 25.300781 L 171.738281 25.300781 L 171.738281 39.319336 Z " fill="rgb(0, 0, 0)" fill-opacity="1.000000" />
<path d="M 415.878906 39.319336 L 415.878906 25.300781 L 416.738281 25.300781 L 416.738281 39.319336 Z " fill="rgb(0, 0, 0)" fill-opacity="1.000000" />
<path d="M 461.414551 39.319336 L 468.251953 25.300781 L 469.208008 25.300781 L 462.370605 39.319336 Z " fill="rgb(0, 0, 0)" fill-opacity="1.000000" />
<path d="M 471.878906 39.319336 L 471.878906 25.300781 L 472.738281 25.300781 L 472.738281 39.319336 Z " fill="rgb(0, 0, 0)" fill-opacity="1.000000" />
<path d="M 91.537109 16.984375 L 92.562988 16.984375 L 94.308594 22.033203 L 96.059570 16.984375 L 97.085449 16.984375 L 94.947754 23.000000 L 93.674805 23.000000 Z " fill="rgb(0, 0, 0)" fill-opacity="1.000000" />
<path d="M 99.111816 14.980957 L 103.172363 14.980957 L 103.172363 15.894043 L 100.100098 15.894043 L 100.100098 17.865234 Q 100.331055 17.779297 100.564697 17.739014 Q 100.798340 17.698730 101.034668 17.698730 Q 102.280762 17.698730 103.011230 18.434570 Q 103.741699 19.170410 103.741699 20.427246 Q 103.741699 21.694824 102.976318 22.425293 Q 102.210938 23.155762 100.884277 23.155762 Q 100.245117 23.155762 99.716064 23.069824 Q 99.187012 22.983887 98.768066 22.812012 L 98.768066 21.710938 Q 99.262207 21.979492 99.761719 22.111084 Q 100.261230 22.242676 100.782227 22.242676 Q 101.679199 22.242676 102.165283 21.770020 Q 102.651367 21.297363 102.651367 20.427246 Q 102.651367 19.567871 102.149170 19.089844 Q 101.646973 18.611816 100.750000 18.611816 Q 100.314941 18.611816 99.901367 18.711182 Q 99.487793 18.810547 99.111816 19.009277 Z " fill="rgb(0, 0, 0)" fill-opacity="1.000000" />
<path d="M 112.032227 20.142578 L 115.308594 16.866211 L 118.590332 20.142578 L 115.308594 23.418945 Z " fill="rgb(0, 0, 0)" fill-opacity="1.000000" />
<path d="M 118.892578 20.335938 L 118.892578 19.412109 L 125.729980 19.412109 L 125.729980 20.335938 Z " fill="rgb(0, 0, 0)" fill-opacity="1.000000" />
<path d="M 125.892578 20.335938 L 125.892578 19.412109 L 132.729980 19.412109 L 132.729980 20.335938 Z " fill="rgb(0, 0, 0)" fill-opacity="1.000000" />
<path d="M 132.892578 20.335938 L 132.892578 19.412109 L 139.729980 19.412109 L 139.729980 20.335938 Z " fill="rgb(0, 0, 0)" fill-opacity="1.000000" />
<path d="M 139.892578 20.335938 L 139.892578 19.412109 L 146.729980 19.412109 L 146.729980 20.335938 Z " fill="rgb(0, 0, 0)" fill-opacity="1.000000" />
<path d="M 146.892578 20.335938 L 146.892578 19.412109 L 153.729980 19.412109 L 153.729980 20.335938 Z " fill="rgb(0, 0, 0)" fill-opacity="1.000000" />
<path d="M 153.892578 20.335938 L 153.892578 19.412109 L 160.729980 19.412109 L 160.729980 20.335938 Z " fill="rgb(0, 0, 0)" fill-opacity="1.000000" />
<path d="M 160.892578 20.335938 L 160.892578 19.412109 L 167.729980 19.412109 L 167.729980 20.335938 Z " fill="rgb(0, 0, 0)" fill-opacity="1.000000" />
<path d="M 168.032227 20.142578 L 171.308594 16.866211 L 174.590332 20.142578 L 171.308594 23.418945 Z " fill="rgb(0, 0, 0)" fill-opacity="1.000000" />
<path d="M 182.537109 16.984375 L 183.562988 16.984375 L 185.308594 22.033203 L 187.059570 16.984375 L 188.085449 16.984375 L 185.947754 23.000000 L 184.674805 23.000000 Z " fill="rgb(0, 0, 0)" fill-opacity="1.000000" />
<path d="M 191.003418 22.086914 L 194.687988 22.086914 L 194.687988 23.000000 L 189.816406 23.000000 L 189.816406 22.086914 Q 190.820801 21.028809 191.572754 20.217773 Q 192.324707 19.406738 192.609375 19.073730 Q 193.146484 18.418457 193.334473 18.012939 Q 193.522461 17.607422 193.522461 17.183105 Q 193.522461 16.511719 193.127686 16.130371 Q 192.732910 15.749023 192.045410 15.749023 Q 191.556641 15.749023 191.019531 15.926270 Q 190.482422 16.103516 189.880859 16.463379 L 189.880859 15.367676 Q 190.434082 15.104492 190.968506 14.970215 Q 191.502930 14.835938 192.023926 14.835938 Q 193.200195 14.835938 193.917236 15.461670 Q 194.634277 16.087402 194.634277 17.102539 Q 194.634277 17.618164 194.395264 18.133789 Q 194.156250 18.649414 193.619141 19.272461 Q 193.318359 19.621582 192.746338 20.239258 Q 192.174316 20.856934 191.003418 22.086914 Z " fill="rgb(0, 0, 0)" fill-opacity="1.000000" />
<path d="M 392.537109 16.984375 L 393.562988 16.984375 L 395.308594 22.033203 L 397.059570 16.984375 L 398.085449 16.984375 L 395.947754 23.000000 L 394.674805 23.000000 Z " fill="rgb(0, 0, 0)" fill-opacity="1.000000" />
<path d="M 403.167969 18.708496 Q 403.957520 18.917969 404.376465 19.452393 Q 404.795410 19.986816 404.795410 20.787109 Q 404.795410 21.893555 404.051514 22.524658 Q 403.307617 23.155762 401.991699 23.155762 Q 401.438477 23.155762 400.863770 23.053711 Q 400.289062 22.951660 399.735840 22.758301 L 399.735840 21.678711 Q 400.283691 21.963379 400.815430 22.103027 Q 401.347168 22.242676 401.873535 22.242676 Q 402.765137 22.242676 403.243164 21.839844 Q 403.721191 21.437012 403.721191 20.679688 Q 403.721191 19.981445 403.243164 19.570557 Q 402.765137 19.159668 401.948730 19.159668 L 401.121582 19.159668 L 401.121582 18.268066 L 401.948730 18.268066 Q 402.695312 18.268066 403.114258 17.940430 Q 403.533203 17.612793 403.533203 17.027344 Q 403.533203 16.409668 403.143799 16.079346 Q 402.754395 15.749023 402.034668 15.749023 Q 401.556641 15.749023 401.046387 15.856445 Q 400.536133 15.963867 399.977539 16.178711 L 399.977539 15.179688 Q 400.627441 15.007812 401.135010 14.921875 Q 401.642578 14.835938 402.034668 14.835938 Q 403.205566 14.835938 403.906494 15.424072 Q 404.607422 16.012207 404.607422 16.984375 Q 404.607422 17.645020 404.239502 18.085449 Q 403.871582 18.525879 403.167969 18.708496 Z " fill="rgb(0, 0, 0)" fill-opacity="1.000000" />
<path d="M 413.032227 20.142578 L 416.308594 16.866211 L 419.590332 20.142578 L 416.308594 23.418945 Z " fill="rgb(0, 0, 0)" fill-opacity="1.000000" />
<path d="M 419.892578 20.335938 L 419.892578 19.412109 L 426.729980 19.412109 L 426.729980 20.335938 Z " fill="rgb(0, 0, 0)" fill-opacity="1.000000" />
<path d="M 426.892578 20.335938 L 426.892578 19.412109 L 433.729980 19.412109 L 433.729980 20.335938 Z " fill="rgb(0, 0, 0)" fill-opacity="1.000000" />
<path d="M 433.892578 20.335938 L 433.892578 19.412109 L 440.729980 19.412109 L 440.729980 20.335938 Z " fill="rgb(0, 0, 0)" fill-opacity="1.000000" />
<path d="M 440.892578 20.335938 L 440.892578 19.412109 L 447.729980 19.412109 L 447.729980 20.335938 Z " fill="rgb(0, 0, 0)" fill-opacity="1.000000" />
<path d="M 447.892578 20.335938 L 447.892578 19.412109 L 454.729980 19.412109 L 454.729980 20.335938 Z " fill="rgb(0, 0, 0)" fill-opacity="1.000000" />
<path d="M 454.892578 20.335938 L 454.892578 19.412109 L 461.729980 19.412109 L 461.729980 20.335938 Z " fill="rgb(0, 0, 0)" fill-opacity="1.000000" />
<path d="M 461.892578 20.335938 L 461.892578 19.412109 L 468.729980 19.412109 L 468.729980 20.335938 Z " fill="rgb(0, 0, 0)" fill-opacity="1.000000" />
<path d="M 469.032227 20.142578 L 472.308594 16.866211 L 475.590332 20.142578 L 472.308594 23.418945 Z " fill="rgb(0, 0, 0)" fill-opacity="1.000000" />
<path d="M 483.537109 16.984375 L 484.562988 16.984375 L 486.308594 22.033203 L 488.059570 16.984375 L 489.085449 16.984375 L 486.947754 23.000000 L 485.674805 23.000000 Z " fill="rgb(0, 0, 0)" fill-opacity="1.000000" />
<path d="M 492.003418 22.086914 L 495.687988 22.086914 L 495.687988 23.000000 L 490.816406 23.000000 L 490.816406 22.086914 Q 491.820801 21.028809 492.572754 20.217773 Q 493.324707 19.406738 493.609375 19.073730 Q 494.146484 18.418457 494.334473 18.012939 Q 494.522461 17.607422 494.522461 17.183105 Q 494.522461 16.511719 494.127686 16.130371 Q 493.732910 15.749023 493.045410 15.749023 Q 492.556641 15.749023 492.019531 15.926270 Q 491.482422 16.103516 490.880859 16.463379 L 490.880859 15.367676 Q 491.434082 15.104492 491.968506 14.970215 Q 492.502930 14.835938 493.023926 14.835938 Q 494.200195 14.835938 494.917236 15.461670 Q 495.634277 16.087402 495.634277 17.102539 Q 495.634277 17.618164 495.395264 18.133789 Q 495.156250 18.649414 494.619141 19.272461 Q 494.318359 19.621582 493.746338 20.239258 Q 493.174316 20.856934 492.003418 22.086914 Z " fill="rgb(0, 0, 0)" fill-opacity="1.000000" />
<path d="M 161.537109 3.984375 L 162.562988 3.984375 L 164.308594 9.033203 L 166.059570 3.984375 L 167.085449 3.984375 L 164.947754 10.000000 L 163.674805 10.000000 Z " fill="rgb(0, 0, 0)" fill-opacity="1.000000" />
<path d="M 172.167969 5.708496 Q 172.957520 5.917969 173.376465 6.452393 Q 173.795410 6.986816 173.795410 7.787109 Q 173.795410 8.893555 173.051514 9.524658 Q 172.307617 10.155762 170.991699 10.155762 Q 170.438477 10.155762 169.863770 10.053711 Q 169.289062 9.951660 168.735840 9.758301 L 168.735840 8.678711 Q 169.283691 8.963379 169.815430 9.103027 Q 170.347168 9.242676 170.873535 9.242676 Q 171.765137 9.242676 172.243164 8.839844 Q 172.721191 8.437012 172.721191 7.679688 Q 172.721191 6.981445 172.243164 6.570557 Q 171.765137 6.159668 170.948730 6.159668 L 170.121582 6.159668 L 170.121582 5.268066 L 170.948730 5.268066 Q 171.695312 5.268066 172.114258 4.940430 Q 172.533203 4.612793 172.533203 4.027344 Q 172.533203 3.409668 172.143799 3.079346 Q 171.754395 2.749023 171.034668 2.749023 Q 170.556641 2.749023 170.046387 2.856445 Q 169.536133 2.963867 168.977539 3.178711 L 168.977539 2.179688 Q 169.627441 2.007812 170.135010 1.921875 Q 170.642578 1.835938 171.034668 1.835938 Q 172.205566 1.835938 172.906494 2.424072 Q 173.607422 3.012207 173.607422 3.984375 Q 173.607422 4.645020 173.239502 5.085449 Q 172.871582 5.525879 172.167969 5.708496 Z " fill="rgb(0, 0, 0)" fill-opacity="1.000000" />
<path d="M 469.537109 3.984375 L 470.562988 3.984375 L 472.308594 9.033203 L 474.059570 3.984375 L 475.085449 3.984375 L 472.947754 10.000000 L 471.674805 10.000000 Z " fill="rgb(0, 0, 0)" fill-opacity="1.000000" />
<path d="M 478.003418 9.086914 L 481.687988 9.086914 L 481.687988 10.000000 L 476.816406 10.000000 L 476.816406 9.086914 Q 477.820801 8.028809 478.572754 7.217773 Q 479.324707 6.406738 479.609375 6.073730 Q 480.146484 5.418457 480.334473 5.012939 Q 480.522461 4.607422 480.522461 4.183105 Q 480.522461 3.511719 480.127686 3.130371 Q 479.732910 2.749023 479.045410 2.749023 Q 478.556641 2.749023 478.019531 2.926270 Q 477.482422 3.103516 476.880859 3.463379 L 476.880859 2.367676 Q 477.434082 2.104492 477.968506 1.970215 Q 478.502930 1.835938 479.023926 1.835938 Q 480.200195 1.835938 480.917236 2.461670 Q 481.634277 3.087402 481.634277 4.102539 Q 481.634277 4.618164 481.395264 5.133789 Q 481.156250 5.649414 480.619141 6.272461 Q 480.318359 6.621582 479.746338 7.239258 Q 479.174316 7.856934 478.003418 9.086914 Z " fill="rgb(0, 0, 0)" fill-opacity="1.000000" />
</svg>