<svg xmlns="http://www.w3.org/2000/svg" version="1.1" width="526" height="222">
<path d="M 24.308594 204.086914 L 26.193848 196.980957 L 27.316406 196.980957 L 24.969238 205.000000 L 23.653320 205.000000 L 21.306152 196.980957 L 22.428711 196.980957 Z " fill="rgb(0, 0, 0)" fill-opacity="1.000000" />
<path d="M 351.079590 209.980957 L 355.532227 209.980957 L 355.532227 210.894043 L 353.851074 210.894043 L 353.851074 217.086914 L 355.532227 217.086914 L 355.532227 218.000000 L 351.079590 218.000000 L 351.079590 217.086914 L 352.760742 217.086914 L 352.760742 210.894043 L 351.079590 210.894043 Z " fill="rgb(0, 0, 0)" fill-opacity="1.000000" />
<path d="M 358.981934 213.955566 L 358.981934 217.108398 L 360.265625 217.108398 Q 361.210938 217.108398 361.613770 216.778076 Q 362.016602 216.447754 362.016602 215.690430 Q 362.016602 214.691406 361.592285 214.323486 Q 361.167969 213.955566 360.265625 213.955566 Z M 358.981934 210.872559 L 358.981934 213.074707 L 360.244141 213.074707 Q 361.028320 213.074707 361.380127 212.773926 Q 361.731934 212.473145 361.731934 212.016602 Q 361.731934 211.409668 361.385498 211.141113 Q 361.039062 210.872559 360.244141 210.872559 Z M 357.891602 209.980957 L 360.265625 209.980957 Q 361.495605 209.980957 362.161621 210.512695 Q 362.827637 211.044434 362.827637 212.016602 Q 362.827637 212.537598 362.475830 212.961914 Q 362.124023 213.386230 361.420410 213.493652 Q 362.209961 213.611816 362.658447 214.167725 Q 363.106934 214.723633 363.106934 215.797852 Q 363.106934 216.888184 362.392578 217.444092 Q 361.678223 218.000000 360.265625 218.000000 L 357.891602 218.000000 Z " fill="rgb(0, 0, 0)" fill-opacity="1.000000" />
<path d="M 368.860840 213.998535 Q 368.860840 212.231445 368.498291 211.474121 Q 368.135742 210.716797 367.308594 210.716797 Q 366.486816 210.716797 366.124268 211.474121 Q 365.761719 212.231445 365.761719 213.998535 Q 365.761719 215.760254 366.124268 216.517578 Q 366.486816 217.274902 367.308594 217.274902 Q 368.135742 217.274902 368.498291 216.520264 Q 368.860840 215.765625 368.860840 213.998535 Z M 369.994141 213.998535 Q 369.994141 216.093262 369.330811 217.124512 Q 368.667480 218.155762 367.308594 218.155762 Q 365.949707 218.155762 365.289062 217.129883 Q 364.628418 216.104004 364.628418 213.998535 Q 364.628418 211.898438 365.291748 210.867188 Q 365.955078 209.835938 367.308594 209.835938 Q 368.667480 209.835938 369.330811 210.867188 Q 369.994141 211.898438 369.994141 213.998535 Z " fill="rgb(0, 0, 0)" fill-opacity="1.000000" />
<path d="M 373.304199 211.989746 L 374.979980 211.989746 L 374.979980 213.928711 L 373.304199 213.928711 Z M 373.304199 216.044922 L 374.979980 216.044922 L 374.979980 218.000000 L 373.304199 218.000000 Z " fill="rgb(0, 0, 0)" fill-opacity="1.000000" />
<path d="M 390.542969 218.273926 L 390.542969 219.047363 L 390.199219 219.047363 Q 388.861816 219.047363 388.407959 218.649902 Q 387.954102 218.252441 387.954102 217.065430 L 387.954102 215.991211 Q 387.954102 215.405762 387.623779 214.981445 Q 387.293457 214.557129 386.600586 214.557129 L 385.945312 214.557129 L 385.945312 213.789062 L 386.600586 213.789062 Q 387.357910 213.789062 387.656006 213.429199 Q 387.954102 213.069336 387.954102 212.371094 L 387.954102 210.974609 Q 387.954102 209.787598 388.407959 209.392822 Q 388.861816 208.998047 390.199219 208.998047 L 390.542969 208.998047 L 390.542969 209.766113 L 390.166992 209.766113 Q 389.415039 209.766113 389.186768 209.999756 Q 388.958496 210.233398 388.958496 210.996094 L 388.958496 212.435547 Q 388.958496 213.380859 388.587891 213.705811 Q 388.217285 214.030762 387.143066 214.175781 Q 388.185059 214.299316 388.571777 214.651123 Q 388.958496 215.002930 388.958496 215.921387 L 388.958496 217.043945 Q 388.958496 217.812012 389.186768 218.042969 Q 389.415039 218.273926 390.166992 218.273926 Z " fill="rgb(0, 0, 0)" fill-opacity="1.000000" />
<path d="M 402.308594 209.862793 Q 403.592285 209.862793 404.250244 210.910156 Q 404.908203 211.957520 404.908203 214.009277 Q 404.908203 216.061035 404.250244 217.108398 Q 403.592285 218.155762 402.308594 218.155762 Q 401.024902 218.155762 400.369629 217.108398 Q 399.714355 216.061035 399.714355 214.009277 Q 399.714355 211.957520 400.369629 210.910156 Q 401.024902 209.862793 402.308594 209.862793 Z M 402.308594 217.296387 Q 403.071289 217.296387 403.444580 216.485352 Q 403.817871 215.674316 403.817871 214.009277 Q 403.817871 213.123047 403.710449 212.408691 L 401.153809 216.410156 Q 401.556641 217.296387 402.308594 217.296387 Z M 402.308594 210.722168 Q 401.551270 210.722168 401.177979 211.533203 Q 400.804688 212.344238 400.804688 214.009277 Q 400.804688 214.766602 400.906738 215.427246 L 403.409668 211.436523 Q 403.001465 210.722168 402.308594 210.722168 Z " fill="rgb(0, 0, 0)" fill-opacity="1.000000" />
<path d="M 408.374023 216.061035 L 410.049805 216.061035 L 410.049805 217.484375 L 408.857422 219.799316 L 407.783203 219.804688 L 408.374023 217.484375 Z " fill="rgb(0, 0, 0)" fill-opacity="1.000000" />
<path d="M 421.450195 217.092285 L 423.136719 217.092285 L 423.136719 211.033691 L 421.117188 212.005859 L 421.117188 210.963867 L 423.125977 210.007812 L 424.210938 210.007812 L 424.210938 217.092285 L 425.875977 217.092285 L 425.875977 218.000000 L 421.450195 218.000000 Z " fill="rgb(0, 0, 0)" fill-opacity="1.000000" />
<path d="M 429.374023 216.061035 L 431.049805 216.061035 L 431.049805 217.484375 L 429.857422 219.799316 L 428.783203 219.804688 L 429.374023 217.484375 Z " fill="rgb(0, 0, 0)" fill-opacity="1.000000" />
<path d="M 443.003418 217.086914 L 446.687988 217.086914 L 446.687988 218.000000 L 441.816406 218.000000 L 441.816406 217.086914 Q 442.820801 216.028809 443.572754 215.217773 Q 444.324707 214.406738 444.609375 214.073730 Q 445.146484 213.418457 445.334473 213.012939 Q 445.522461 212.607422 445.522461 212.183105 Q 445.522461 211.511719 445.127686 211.130371 Q 444.732910 210.749023 444.045410 210.749023 Q 443.556641 210.749023 443.019531 210.926270 Q 442.482422 211.103516 441.880859 211.463379 L 441.880859 210.367676 Q 442.434082 210.104492 442.968506 209.970215 Q 443.502930 209.835938 444.023926 209.835938 Q 445.200195 209.835938 445.917236 210.461670 Q 446.634277 211.087402 446.634277 212.102539 Q 446.634277 212.618164 446.395264 213.133789 Q 446.156250 213.649414 445.619141 214.272461 Q 445.318359 214.621582 444.746338 215.239258 Q 444.174316 215.856934 443.003418 217.086914 Z " fill="rgb(0, 0, 0)" fill-opacity="1.000000" />
<path d="M 450.374023 216.061035 L 452.049805 216.061035 L 452.049805 217.484375 L 450.857422 219.799316 L 449.783203 219.804688 L 450.374023 217.484375 Z " fill="rgb(0, 0, 0)" fill-opacity="1.000000" />
<path d="M 464.003418 217.086914 L 467.687988 217.086914 L 467.687988 218.000000 L 462.816406 218.000000 L 462.816406 217.086914 Q 463.820801 216.028809 464.572754 215.217773 Q 465.324707 214.406738 465.609375 214.073730 Q 466.146484 213.418457 466.334473 213.012939 Q 466.522461 212.607422 466.522461 212.183105 Q 466.522461 211.511719 466.127686 211.130371 Q 465.732910 210.749023 465.045410 210.749023 Q 464.556641 210.749023 464.019531 210.926270 Q 463.482422 211.103516 462.880859 211.463379 L 462.880859 210.367676 Q 463.434082 210.104492 463.968506 209.970215 Q 464.502930 209.835938 465.023926 209.835938 Q 466.200195 209.835938 466.917236 210.461670 Q 467.634277 211.087402 467.634277 212.102539 Q 467.634277 212.618164 467.395264 213.133789 Q 467.156250 213.649414 466.619141 214.272461 Q 466.318359 214.621582 465.746338 215.239258 Q 465.174316 215.856934 464.003418 217.086914 Z " fill="rgb(0, 0, 0)" fill-opacity="1.000000" />
<path d="M 471.374023 216.061035 L 473.049805 216.061035 L 473.049805 217.484375 L 471.857422 219.799316 L 470.783203 219.804688 L 471.374023 217.484375 Z " fill="rgb(0, 0, 0)" fill-opacity="1.000000" />
<path d="M 486.308594 209.862793 Q 487.592285 209.862793 488.250244 210.910156 Q 488.908203 211.957520 488.908203 214.009277 Q 488.908203 216.061035 488.250244 217.108398 Q 487.592285 218.155762 486.308594 218.155762 Q 485.024902 218.155762 484.369629 217.108398 Q 483.714355 216.061035 483.714355 214.009277 Q 483.714355 211.957520 484.369629 210.910156 Q 485.024902 209.862793 486.308594 209.862793 Z M 486.308594 217.296387 Q 487.071289 217.296387 487.444580 216.485352 Q 487.817871 215.674316 487.817871 214.009277 Q 487.817871 213.123047 487.710449 212.408691 L 485.153809 216.410156 Q 485.556641 217.296387 486.308594 217.296387 Z M 486.308594 210.722168 Q 485.551270 210.722168 485.177979 211.533203 Q 484.804688 212.344238 484.804688 214.009277 Q 484.804688 214.766602 484.906738 215.427246 L 487.409668 211.436523 Q 487.001465 210.722168 486.308594 210.722168 Z " fill="rgb(0, 0, 0)" fill-opacity="1.000000" />
<path d="M 492.374023 216.061035 L 494.049805 216.061035 L 494.049805 217.484375 L 492.857422 219.799316 L 491.783203 219.804688 L 492.374023 217.484375 Z " fill="rgb(0, 0, 0)" fill-opacity="1.000000" />
<path d="M 508.167969 213.708496 Q 508.957520 213.917969 509.376465 214.452393 Q 509.795410 214.986816 509.795410 215.787109 Q 509.795410 216.893555 509.051514 217.524658 Q 508.307617 218.155762 506.991699 218.155762 Q 506.438477 218.155762 505.863770 218.053711 Q 505.289062 217.951660 504.735840 217.758301 L 504.735840 216.678711 Q 505.283691 216.963379 505.815430 217.103027 Q 506.347168 217.242676 506.873535 217.242676 Q 507.765137 217.242676 508.243164 216.839844 Q 508.721191 216.437012 508.721191 215.679688 Q 508.721191 214.981445 508.243164 214.570557 Q 507.765137 214.159668 506.948730 214.159668 L 506.121582 214.159668 L 506.121582 213.268066 L 506.948730 213.268066 Q 507.695312 213.268066 508.114258 212.940430 Q 508.533203 212.612793 508.533203 212.027344 Q 508.533203 211.409668 508.143799 211.079346 Q 507.754395 210.749023 507.034668 210.749023 Q 506.556641 210.749023 506.046387 210.856445 Q 505.536133 210.963867 504.977539 211.178711 L 504.977539 210.179688 Q 505.627441 210.007812 506.135010 209.921875 Q 506.642578 209.835938 507.034668 209.835938 Q 508.205566 209.835938 508.906494 210.424072 Q 509.607422 211.012207 509.607422 211.984375 Q 509.607422 212.645020 509.239502 213.085449 Q 508.871582 213.525879 508.167969 213.708496 Z " fill="rgb(0, 0, 0)" fill-opacity="1.000000" />
<path d="M 519.552246 218.273926 Q 520.304199 218.273926 520.532471 218.042969 Q 520.760742 217.812012 520.760742 217.043945 L 520.760742 215.921387 Q 520.760742 215.002930 521.147461 214.651123 Q 521.534180 214.299316 522.576172 214.175781 Q 521.501953 214.030762 521.131348 213.705811 Q 520.760742 213.380859 520.760742 212.435547 L 520.760742 210.996094 Q 520.760742 210.233398 520.532471 209.999756 Q 520.304199 209.766113 519.552246 209.766113 L 519.176270 209.766113 L 519.176270 208.998047 L 519.520020 208.998047 Q 520.857422 208.998047 521.311279 209.392822 Q 521.765137 209.787598 521.765137 210.974609 L 521.765137 212.371094 Q 521.765137 213.069336 522.063232 213.429199 Q 522.361328 213.789062 523.118652 213.789062 L 523.773926 213.789062 L 523.773926 214.557129 L 523.118652 214.557129 Q 522.425781 214.557129 522.095459 214.981445 Q 521.765137 215.405762 521.765137 215.991211 L 521.765137 217.065430 Q 521.765137 218.252441 521.311279 218.649902 Q 520.857422 219.047363 519.520020 219.047363 L 519.176270 219.047363 L 519.176270 218.273926 Z " fill="rgb(0, 0, 0)" fill-opacity="1.000000" />
<path d="M 29.981934 200.955566 L 29.981934 204.108398 L 31.265625 204.108398 Q 32.210938 204.108398 32.613770 203.778076 Q 33.016602 203.447754 33.016602 202.690430 Q 33.016602 201.691406 32.592285 201.323486 Q 32.167969 200.955566 31.265625 200.955566 Z M 29.981934 197.872559 L 29.981934 200.074707 L 31.244141 200.074707 Q 32.028320 200.074707 32.380127 199.773926 Q 32.731934 199.473145 32.731934 199.016602 Q 32.731934 198.409668 32.385498 198.141113 Q 32.039062 197.872559 31.244141 197.872559 Z M 28.891602 196.980957 L 31.265625 196.980957 Q 32.495605 196.980957 33.161621 197.512695 Q 33.827637 198.044434 33.827637 199.016602 Q 33.827637 199.537598 33.475830 199.961914 Q 33.124023 200.386230 32.420410 200.493652 Q 33.209961 200.611816 33.658447 201.167725 Q 34.106934 201.723633 34.106934 202.797852 Q 34.106934 203.888184 33.392578 204.444092 Q 32.678223 205.000000 31.265625 205.000000 L 28.891602 205.000000 Z " fill="rgb(0, 0, 0)" fill-opacity="1.000000" />
<path d="M 39.860840 200.998535 Q 39.860840 199.231445 39.498291 198.474121 Q 39.135742 197.716797 38.308594 197.716797 Q 37.486816 197.716797 37.124268 198.474121 Q 36.761719 199.231445 36.761719 200.998535 Q 36.761719 202.760254 37.124268 203.517578 Q 37.486816 204.274902 38.308594 204.274902 Q 39.135742 204.274902 39.498291 203.520264 Q 39.860840 202.765625 39.860840 200.998535 Z M 40.994141 200.998535 Q 40.994141 203.093262 40.330811 204.124512 Q 39.667480 205.155762 38.308594 205.155762 Q 36.949707 205.155762 36.289062 204.129883 Q 35.628418 203.104004 35.628418 200.998535 Q 35.628418 198.898438 36.291748 197.867188 Q 36.955078 196.835938 38.308594 196.835938 Q 39.667480 196.835938 40.330811 197.867188 Q 40.994141 198.898438 40.994141 200.998535 Z " fill="rgb(0, 0, 0)" fill-opacity="1.000000" />
<path d="M 44.304199 198.989746 L 45.979980 198.989746 L 45.979980 200.928711 L 44.304199 200.928711 Z M 44.304199 203.044922 L 45.979980 203.044922 L 45.979980 205.000000 L 44.304199 205.000000 Z " fill="rgb(0, 0, 0)" fill-opacity="1.000000" />
<path d="M 61.542969 205.273926 L 61.542969 206.047363 L 61.199219 206.047363 Q 59.861816 206.047363 59.407959 205.649902 Q 58.954102 205.252441 58.954102 204.065430 L 58.954102 202.991211 Q 58.954102 202.405762 58.623779 201.981445 Q 58.293457 201.557129 57.600586 201.557129 L 56.945312 201.557129 L 56.945312 200.789062 L 57.600586 200.789062 Q 58.357910 200.789062 58.656006 200.429199 Q 58.954102 200.069336 58.954102 199.371094 L 58.954102 197.974609 Q 58.954102 196.787598 59.407959 196.392822 Q 59.861816 195.998047 61.199219 195.998047 L 61.542969 195.998047 L 61.542969 196.766113 L 61.166992 196.766113 Q 60.415039 196.766113 60.186768 196.999756 Q 59.958496 197.233398 59.958496 197.996094 L 59.958496 199.435547 Q 59.958496 200.380859 59.587891 200.705811 Q 59.217285 201.030762 58.143066 201.175781 Q 59.185059 201.299316 59.571777 201.651123 Q 59.958496 202.002930 59.958496 202.921387 L 59.958496 204.043945 Q 59.958496 204.812012 60.186768 205.042969 Q 60.415039 205.273926 61.166992 205.273926 Z " fill="rgb(0, 0, 0)" fill-opacity="1.000000" />
<path d="M 70.537109 198.984375 L 71.562988 198.984375 L 73.308594 204.033203 L 75.059570 198.984375 L 76.085449 198.984375 L 73.947754 205.000000 L 72.674805 205.000000 Z " fill="rgb(0, 0, 0)" fill-opacity="1.000000" />
<path d="M 80.308594 196.862793 Q 81.592285 196.862793 82.250244 197.910156 Q 82.908203 198.957520 82.908203 201.009277 Q 82.908203 203.061035 82.250244 204.108398 Q 81.592285 205.155762 80.308594 205.155762 Q 79.024902 205.155762 78.369629 204.108398 Q 77.714355 203.061035 77.714355 201.009277 Q 77.714355 198.957520 78.369629 197.910156 Q 79.024902 196.862793 80.308594 196.862793 Z M 80.308594 204.296387 Q 81.071289 204.296387 81.444580 203.485352 Q 81.817871 202.674316 81.817871 201.009277 Q 81.817871 200.123047 81.710449 199.408691 L 79.153809 203.410156 Q 79.556641 204.296387 80.308594 204.296387 Z M 80.308594 197.722168 Q 79.551270 197.722168 79.177979 198.533203 Q 78.804688 199.344238 78.804688 201.009277 Q 78.804688 201.766602 78.906738 202.427246 L 81.409668 198.436523 Q 81.001465 197.722168 80.308594 197.722168 Z " fill="rgb(0, 0, 0)" fill-opacity="1.000000" />
<path d="M 86.374023 203.061035 L 88.049805 203.061035 L 88.049805 204.484375 L 86.857422 206.799316 L 85.783203 206.804688 L 86.374023 204.484375 Z " fill="rgb(0, 0, 0)" fill-opacity="1.000000" />
<path d="M 98.537109 198.984375 L 99.562988 198.984375 L 101.308594 204.033203 L 103.059570 198.984375 L 104.085449 198.984375 L 101.947754 205.000000 L 100.674805 205.000000 Z " fill="rgb(0, 0, 0)" fill-opacity="1.000000" />
<path d="M 106.450195 204.092285 L 108.136719 204.092285 L 108.136719 198.033691 L 106.117188 199.005859 L 106.117188 197.963867 L 108.125977 197.007812 L 109.210938 197.007812 L 109.210938 204.092285 L 110.875977 204.092285 L 110.875977 205.000000 L 106.450195 205.000000 Z " fill="rgb(0, 0, 0)" fill-opacity="1.000000" />
<path d="M 114.374023 203.061035 L 116.049805 203.061035 L 116.049805 204.484375 L 114.857422 206.799316 L 113.783203 206.804688 L 114.374023 204.484375 Z " fill="rgb(0, 0, 0)" fill-opacity="1.000000" />
<path d="M 126.537109 198.984375 L 127.562988 198.984375 L 129.308594 204.033203 L 131.059570 198.984375 L 132.085449 198.984375 L 129.947754 205.000000 L 128.674805 205.000000 Z " fill="rgb(0, 0, 0)" fill-opacity="1.000000" />
<path d="M 135.003418 204.086914 L 138.687988 204.086914 L 138.687988 205.000000 L 133.816406 205.000000 L 133.816406 204.086914 Q 134.820801 203.028809 135.572754 202.217773 Q 136.324707 201.406738 136.609375 201.073730 Q 137.146484 200.418457 137.334473 200.012939 Q 137.522461 199.607422 137.522461 199.183105 Q 137.522461 198.511719 137.127686 198.130371 Q 136.732910 197.749023 136.045410 197.749023 Q 135.556641 197.749023 135.019531 197.926270 Q 134.482422 198.103516 133.880859 198.463379 L 133.880859 197.367676 Q 134.434082 197.104492 134.968506 196.970215 Q 135.502930 196.835938 136.023926 196.835938 Q 137.200195 196.835938 137.917236 197.461670 Q 138.634277 198.087402 138.634277 199.102539 Q 138.634277 199.618164 138.395264 200.133789 Q 138.156250 200.649414 137.619141 201.272461 Q 137.318359 201.621582 136.746338 202.239258 Q 136.174316 202.856934 135.003418 204.086914 Z " fill="rgb(0, 0, 0)" fill-opacity="1.000000" />
<path d="M 142.374023 203.061035 L 144.049805 203.061035 L 144.049805 204.484375 L 142.857422 206.799316 L 141.783203 206.804688 L 142.374023 204.484375 Z " fill="rgb(0, 0, 0)" fill-opacity="1.000000" />
<path d="M 154.537109 198.984375 L 155.562988 198.984375 L 157.308594 204.033203 L 159.059570 198.984375 L 160.085449 198.984375 L 157.947754 205.000000 L 156.674805 205.000000 Z " fill="rgb(0, 0, 0)" fill-opacity="1.000000" />
<path d="M 165.167969 200.708496 Q 165.957520 200.917969 166.376465 201.452393 Q 166.795410 201.986816 166.795410 202.787109 Q 166.795410 203.893555 166.051514 204.524658 Q 165.307617 205.155762 163.991699 205.155762 Q 163.438477 205.155762 162.863770 205.053711 Q 162.289062 204.951660 161.735840 204.758301 L 161.735840 203.678711 Q 162.283691 203.963379 162.815430 204.103027 Q 163.347168 204.242676 163.873535 204.242676 Q 164.765137 204.242676 165.243164 203.839844 Q 165.721191 203.437012 165.721191 202.679688 Q 165.721191 201.981445 165.243164 201.570557 Q 164.765137 201.159668 163.948730 201.159668 L 163.121582 201.159668 L 163.121582 200.268066 L 163.948730 200.268066 Q 164.695312 200.268066 165.114258 199.940430 Q 165.533203 199.612793 165.533203 199.027344 Q 165.533203 198.409668 165.143799 198.079346 Q 164.754395 197.749023 164.034668 197.749023 Q 163.556641 197.749023 163.046387 197.856445 Q 162.536133 197.963867 161.977539 198.178711 L 161.977539 197.179688 Q 162.627441 197.007812 163.135010 196.921875 Q 163.642578 196.835938 164.034668 196.835938 Q 165.205566 196.835938 165.906494 197.424072 Q 166.607422 198.012207 166.607422 198.984375 Q 166.607422 199.645020 166.239502 200.085449 Q 165.871582 200.525879 165.167969 200.708496 Z " fill="rgb(0, 0, 0)" fill-opacity="1.000000" />
<path d="M 170.374023 203.061035 L 172.049805 203.061035 L 172.049805 204.484375 L 170.857422 206.799316 L 169.783203 206.804688 L 170.374023 204.484375 Z " fill="rgb(0, 0, 0)" fill-opacity="1.000000" />
<path d="M 182.537109 198.984375 L 183.562988 198.984375 L 185.308594 204.033203 L 187.059570 198.984375 L 188.085449 198.984375 L 185.947754 205.000000 L 184.674805 205.000000 Z " fill="rgb(0, 0, 0)" fill-opacity="1.000000" />
<path d="M 192.947754 197.969238 L 190.417969 202.207031 L 192.947754 202.207031 Z M 192.770508 196.980957 L 194.027344 196.980957 L 194.027344 202.207031 L 195.096191 202.207031 L 195.096191 203.087891 L 194.027344 203.087891 L 194.027344 205.000000 L 192.947754 205.000000 L 192.947754 203.087891 L 189.547852 203.087891 L 189.547852 202.062012 Z " fill="rgb(0, 0, 0)" fill-opacity="1.000000" />
<path d="M 198.374023 203.061035 L 200.049805 203.061035 L 200.049805 204.484375 L 198.857422 206.799316 L 197.783203 206.804688 L 198.374023 204.484375 Z " fill="rgb(0, 0, 0)" fill-opacity="1.000000" />
<path d="M 210.537109 198.984375 L 211.562988 198.984375 L 213.308594 204.033203 L 215.059570 198.984375 L 216.085449 198.984375 L 213.947754 205.000000 L 212.674805 205.000000 Z " fill="rgb(0, 0, 0)" fill-opacity="1.000000" />
<path d="M 218.111816 196.980957 L 222.172363 196.980957 L 222.172363 197.894043 L 219.100098 197.894043 L 219.100098 199.865234 Q 219.331055 199.779297 219.564697 199.739014 Q 219.798340 199.698730 220.034668 199.698730 Q 221.280762 199.698730 222.011230 200.434570 Q 222.741699 201.170410 222.741699 202.427246 Q 222.741699 203.694824 221.976318 204.425293 Q 221.210938 205.155762 219.884277 205.155762 Q 219.245117 205.155762 218.716064 205.069824 Q 218.187012 204.983887 217.768066 204.812012 L 217.768066 203.710938 Q 218.262207 203.979492 218.761719 204.111084 Q 219.261230 204.242676 219.782227 204.242676 Q 220.679199 204.242676 221.165283 203.770020 Q 221.651367 203.297363 221.651367 202.427246 Q 221.651367 201.567871 221.149170 201.089844 Q 220.646973 200.611816 219.750000 200.611816 Q 219.314941 200.611816 218.901367 200.711182 Q 218.487793 200.810547 218.111816 201.009277 Z " fill="rgb(0, 0, 0)" fill-opacity="1.000000" />
<path d="M 232.552246 205.273926 Q 233.304199 205.273926 233.532471 205.042969 Q 233.760742 204.812012 233.760742 204.043945 L 233.760742 202.921387 Q 233.760742 202.002930 234.147461 201.651123 Q 234.534180 201.299316 235.576172 201.175781 Q 234.501953 201.030762 234.131348 200.705811 Q 233.760742 200.380859 233.760742 199.435547 L 233.760742 197.996094 Q 233.760742 197.233398 233.532471 196.999756 Q 233.304199 196.766113 232.552246 196.766113 L 232.176270 196.766113 L 232.176270 195.998047 L 232.520020 195.998047 Q 233.857422 195.998047 234.311279 196.392822 Q 234.765137 196.787598 234.765137 197.974609 L 234.765137 199.371094 Q 234.765137 200.069336 235.063232 200.429199 Q 235.361328 200.789062 236.118652 200.789062 L 236.773926 200.789062 L 236.773926 201.557129 L 236.118652 201.557129 Q 235.425781 201.557129 235.095459 201.981445 Q 234.765137 202.405762 234.765137 202.991211 L 234.765137 204.065430 Q 234.765137 205.252441 234.311279 205.649902 Q 233.857422 206.047363 232.520020 206.047363 L 232.176270 206.047363 L 232.176270 205.273926 Z " fill="rgb(0, 0, 0)" fill-opacity="1.000000" />
<path d="M 353.308594 191.086914 L 355.193848 183.980957 L 356.316406 183.980957 L 353.969238 192.000000 L 352.653320 192.000000 L 350.306152 183.980957 L 351.428711 183.980957 Z " fill="rgb(0, 0, 0)" fill-opacity="1.000000" />
<path d="M 358.981934 187.955566 L 358.981934 191.108398 L 360.265625 191.108398 Q 361.210938 191.108398 361.613770 190.778076 Q 362.016602 190.447754 362.016602 189.690430 Q 362.016602 188.691406 361.592285 188.323486 Q 361.167969 187.955566 360.265625 187.955566 Z M 358.981934 184.872559 L 358.981934 187.074707 L 360.244141 187.074707 Q 361.028320 187.074707 361.380127 186.773926 Q 361.731934 186.473145 361.731934 186.016602 Q 361.731934 185.409668 361.385498 185.141113 Q 361.039062 184.872559 360.244141 184.872559 Z M 357.891602 183.980957 L 360.265625 183.980957 Q 361.495605 183.980957 362.161621 184.512695 Q 362.827637 185.044434 362.827637 186.016602 Q 362.827637 186.537598 362.475830 186.961914 Q 362.124023 187.386230 361.420410 187.493652 Q 362.209961 187.611816 362.658447 188.167725 Q 363.106934 188.723633 363.106934 189.797852 Q 363.106934 190.888184 362.392578 191.444092 Q 361.678223 192.000000 360.265625 192.000000 L 357.891602 192.000000 Z " fill="rgb(0, 0, 0)" fill-opacity="1.000000" />
<path d="M 368.860840 187.998535 Q 368.860840 186.231445 368.498291 185.474121 Q 368.135742 184.716797 367.308594 184.716797 Q 366.486816 184.716797 366.124268 185.474121 Q 365.761719 186.231445 365.761719 187.998535 Q 365.761719 189.760254 366.124268 190.517578 Q 366.486816 191.274902 367.308594 191.274902 Q 368.135742 191.274902 368.498291 190.520264 Q 368.860840 189.765625 368.860840 187.998535 Z M 369.994141 187.998535 Q 369.994141 190.093262 369.330811 191.124512 Q 368.667480 192.155762 367.308594 192.155762 Q 365.949707 192.155762 365.289062 191.129883 Q 364.628418 190.104004 364.628418 187.998535 Q 364.628418 185.898438 365.291748 184.867188 Q 365.955078 183.835938 367.308594 183.835938 Q 368.667480 183.835938 369.330811 184.867188 Q 369.994141 185.898438 369.994141 187.998535 Z " fill="rgb(0, 0, 0)" fill-opacity="1.000000" />
<path d="M 373.304199 185.989746 L 374.979980 185.989746 L 374.979980 187.928711 L 373.304199 187.928711 Z M 373.304199 190.044922 L 374.979980 190.044922 L 374.979980 192.000000 L 373.304199 192.000000 Z " fill="rgb(0, 0, 0)" fill-opacity="1.000000" />
<path d="M 390.542969 192.273926 L 390.542969 193.047363 L 390.199219 193.047363 Q 388.861816 193.047363 388.407959 192.649902 Q 387.954102 192.252441 387.954102 191.065430 L 387.954102 189.991211 Q 387.954102 189.405762 387.623779 188.981445 Q 387.293457 188.557129 386.600586 188.557129 L 385.945312 188.557129 L 385.945312 187.789062 L 386.600586 187.789062 Q 387.357910 187.789062 387.656006 187.429199 Q 387.954102 187.069336 387.954102 186.371094 L 387.954102 184.974609 Q 387.954102 183.787598 388.407959 183.392822 Q 388.861816 182.998047 390.199219 182.998047 L 390.542969 182.998047 L 390.542969 183.766113 L 390.166992 183.766113 Q 389.415039 183.766113 389.186768 183.999756 Q 388.958496 184.233398 388.958496 184.996094 L 388.958496 186.435547 Q 388.958496 187.380859 388.587891 187.705811 Q 388.217285 188.030762 387.143066 188.175781 Q 388.185059 188.299316 388.571777 188.651123 Q 388.958496 189.002930 388.958496 189.921387 L 388.958496 191.043945 Q 388.958496 191.812012 389.186768 192.042969 Q 389.415039 192.273926 390.166992 192.273926 Z " fill="rgb(0, 0, 0)" fill-opacity="1.000000" />
<path d="M 399.537109 185.984375 L 400.562988 185.984375 L 402.308594 191.033203 L 404.059570 185.984375 L 405.085449 185.984375 L 402.947754 192.000000 L 401.674805 192.000000 Z " fill="rgb(0, 0, 0)" fill-opacity="1.000000" />
<path d="M 409.308594 183.862793 Q 410.592285 183.862793 411.250244 184.910156 Q 411.908203 185.957520 411.908203 188.009277 Q 411.908203 190.061035 411.250244 191.108398 Q 410.592285 192.155762 409.308594 192.155762 Q 408.024902 192.155762 407.369629 191.108398 Q 406.714355 190.061035 406.714355 188.009277 Q 406.714355 185.957520 407.369629 184.910156 Q 408.024902 183.862793 409.308594 183.862793 Z M 409.308594 191.296387 Q 410.071289 191.296387 410.444580 190.485352 Q 410.817871 189.674316 410.817871 188.009277 Q 410.817871 187.123047 410.710449 186.408691 L 408.153809 190.410156 Q 408.556641 191.296387 409.308594 191.296387 Z M 409.308594 184.722168 Q 408.551270 184.722168 408.177979 185.533203 Q 407.804688 186.344238 407.804688 188.009277 Q 407.804688 188.766602 407.906738 189.427246 L 410.409668 185.436523 Q 410.001465 184.722168 409.308594 184.722168 Z " fill="rgb(0, 0, 0)" fill-opacity="1.000000" />
<path d="M 415.374023 190.061035 L 417.049805 190.061035 L 417.049805 191.484375 L 415.857422 193.799316 L 414.783203 193.804688 L 415.374023 191.484375 Z " fill="rgb(0, 0, 0)" fill-opacity="1.000000" />
<path d="M 427.537109 185.984375 L 428.562988 185.984375 L 430.308594 191.033203 L 432.059570 185.984375 L 433.085449 185.984375 L 430.947754 192.000000 L 429.674805 192.000000 Z " fill="rgb(0, 0, 0)" fill-opacity="1.000000" />
<path d="M 435.450195 191.092285 L 437.136719 191.092285 L 437.136719 185.033691 L 435.117188 186.005859 L 435.117188 184.963867 L 437.125977 184.007812 L 438.210938 184.007812 L 438.210938 191.092285 L 439.875977 191.092285 L 439.875977 192.000000 L 435.450195 192.000000 Z " fill="rgb(0, 0, 0)" fill-opacity="1.000000" />
<path d="M 443.374023 190.061035 L 445.049805 190.061035 L 445.049805 191.484375 L 443.857422 193.799316 L 442.783203 193.804688 L 443.374023 191.484375 Z " fill="rgb(0, 0, 0)" fill-opacity="1.000000" />
<path d="M 455.537109 185.984375 L 456.562988 185.984375 L 458.308594 191.033203 L 460.059570 185.984375 L 461.085449 185.984375 L 458.947754 192.000000 L 457.674805 192.000000 Z " fill="rgb(0, 0, 0)" fill-opacity="1.000000" />
<path d="M 464.003418 191.086914 L 467.687988 191.086914 L 467.687988 192.000000 L 462.816406 192.000000 L 462.816406 191.086914 Q 463.820801 190.028809 464.572754 189.217773 Q 465.324707 188.406738 465.609375 188.073730 Q 466.146484 187.418457 466.334473 187.012939 Q 466.522461 186.607422 466.522461 186.183105 Q 466.522461 185.511719 466.127686 185.130371 Q 465.732910 184.749023 465.045410 184.749023 Q 464.556641 184.749023 464.019531 184.926270 Q 463.482422 185.103516 462.880859 185.463379 L 462.880859 184.367676 Q 463.434082 184.104492 463.968506 183.970215 Q 464.502930 183.835938 465.023926 183.835938 Q 466.200195 183.835938 466.917236 184.461670 Q 467.634277 185.087402 467.634277 186.102539 Q 467.634277 186.618164 467.395264 187.133789 Q 467.156250 187.649414 466.619141 188.272461 Q 466.318359 188.621582 465.746338 189.239258 Q 465.174316 189.856934 464.003418 191.086914 Z " fill="rgb(0, 0, 0)" fill-opacity="1.000000" />
<path d="M 471.374023 190.061035 L 473.049805 190.061035 L 473.049805 191.484375 L 471.857422 193.799316 L 470.783203 193.804688 L 471.374023 191.484375 Z " fill="rgb(0, 0, 0)" fill-opacity="1.000000" />
<path d="M 483.537109 185.984375 L 484.562988 185.984375 L 486.308594 191.033203 L 488.059570 185.984375 L 489.085449 185.984375 L 486.947754 192.000000 L 485.674805 192.000000 Z " fill="rgb(0, 0, 0)" fill-opacity="1.000000" />
<path d="M 494.167969 187.708496 Q 494.957520 187.917969 495.376465 188.452393 Q 495.795410 188.986816 495.795410 189.787109 Q 495.795410 190.893555 495.051514 191.524658 Q 494.307617 192.155762 492.991699 192.155762 Q 492.438477 192.155762 491.863770 192.053711 Q 491.289062 191.951660 490.735840 191.758301 L 490.735840 190.678711 Q 491.283691 190.963379 491.815430 191.103027 Q 492.347168 191.242676 492.873535 191.242676 Q 493.765137 191.242676 494.243164 190.839844 Q 494.721191 190.437012 494.721191 189.679688 Q 494.721191 188.981445 494.243164 188.570557 Q 493.765137 188.159668 492.948730 188.159668 L 492.121582 188.159668 L 492.121582 187.268066 L 492.948730 187.268066 Q 493.695312 187.268066 494.114258 186.940430 Q 494.533203 186.612793 494.533203 186.027344 Q 494.533203 185.409668 494.143799 185.079346 Q 493.754395 184.749023 493.034668 184.749023 Q 492.556641 184.749023 492.046387 184.856445 Q 491.536133 184.963867 490.977539 185.178711 L 490.977539 184.179688 Q 491.627441 184.007812 492.135010 183.921875 Q 492.642578 183.835938 493.034668 183.835938 Q 494.205566 183.835938 494.906494 184.424072 Q 495.607422 185.012207 495.607422 185.984375 Q 495.607422 186.645020 495.239502 187.085449 Q 494.871582 187.525879 494.167969 187.708496 Z " fill="rgb(0, 0, 0)" fill-opacity="1.000000" />
<path d="M 505.552246 192.273926 Q 506.304199 192.273926 506.532471 192.042969 Q 506.760742 191.812012 506.760742 191.043945 L 506.760742 189.921387 Q 506.760742 189.002930 507.147461 188.651123 Q 507.534180 188.299316 508.576172 188.175781 Q 507.501953 188.030762 507.131348 187.705811 Q 506.760742 187.380859 506.760742 186.435547 L 506.760742 184.996094 Q 506.760742 184.233398 506.532471 183.999756 Q 506.304199 183.766113 505.552246 183.766113 L 505.176270 183.766113 L 505.176270 182.998047 L 505.520020 182.998047 Q 506.857422 182.998047 507.311279 183.392822 Q 507.765137 183.787598 507.765137 184.974609 L 507.765137 186.371094 Q 507.765137 187.069336 508.063232 187.429199 Q 508.361328 187.789062 509.118652 187.789062 L 509.773926 187.789062 L 509.773926 188.557129 L 509.118652 188.557129 Q 508.425781 188.557129 508.095459 188.981445 Q 507.765137 189.405762 507.765137 189.991211 L 507.765137 191.065430 Q 507.765137 192.252441 507.311279 192.649902 Q 506.857422 193.047363 505.520020 193.047363 L 505.176270 193.047363 L 505.176270 192.273926 Z " fill="rgb(0, 0, 0)" fill-opacity="1.000000" />
<path d="M 70.537109 120.984375 L 71.562988 120.984375 L 73.308594 126.033203 L 75.059570 120.984375 L 76.085449 120.984375 L 73.947754 127.000000 L 72.674805 127.000000 Z " fill="rgb(0, 0, 0)" fill-opacity="1.000000" />
<path d="M 91.537109 133.984375 L 92.562988 133.984375 L 94.308594 139.033203 L 96.059570 133.984375 L 97.085449 133.984375 L 94.947754 140.000000 L 93.674805 140.000000 Z " fill="rgb(0, 0, 0)" fill-opacity="1.000000" />
<path d="M 101.308594 131.862793 Q 102.592285 131.862793 103.250244 132.910156 Q 103.908203 133.957520 103.908203 136.009277 Q 103.908203 138.061035 103.250244 139.108398 Q 102.592285 140.155762 101.308594 140.155762 Q 100.024902 140.155762 99.369629 139.108398 Q 98.714355 138.061035 98.714355 136.009277 Q 98.714355 133.957520 99.369629 132.910156 Q 100.024902 131.862793 101.308594 131.862793 Z M 101.308594 139.296387 Q 102.071289 139.296387 102.444580 138.485352 Q 102.817871 137.674316 102.817871 136.009277 Q 102.817871 135.123047 102.710449 134.408691 L 100.153809 138.410156 Q 100.556641 139.296387 101.308594 139.296387 Z M 101.308594 132.722168 Q 100.551270 132.722168 100.177979 133.533203 Q 99.804688 134.344238 99.804688 136.009277 Q 99.804688 136.766602 99.906738 137.427246 L 102.409668 133.436523 Q 102.001465 132.722168 101.308594 132.722168 Z " fill="rgb(0, 0, 0)" fill-opacity="1.000000" />
<path d="M 147.537109 133.984375 L 148.562988 133.984375 L 150.308594 139.033203 L 152.059570 133.984375 L 153.085449 133.984375 L 150.947754 140.000000 L 149.674805 140.000000 Z " fill="rgb(0, 0, 0)" fill-opacity="1.000000" />
<path d="M 155.450195 139.092285 L 157.136719 139.092285 L 157.136719 133.033691 L 155.117188 134.005859 L 155.117188 132.963867 L 157.125977 132.007812 L 158.210938 132.007812 L 158.210938 139.092285 L 159.875977 139.092285 L 159.875977 140.000000 L 155.450195 140.000000 Z " fill="rgb(0, 0, 0)" fill-opacity="1.000000" />
<path d="M 392.537109 133.984375 L 393.562988 133.984375 L 395.308594 139.033203 L 397.059570 133.984375 L 398.085449 133.984375 L 395.947754 140.000000 L 394.674805 140.000000 Z " fill="rgb(0, 0, 0)" fill-opacity="1.000000" />
<path d="M 402.308594 131.862793 Q 403.592285 131.862793 404.250244 132.910156 Q 404.908203 133.957520 404.908203 136.009277 Q 404.908203 138.061035 404.250244 139.108398 Q 403.592285 140.155762 402.308594 140.155762 Q 401.024902 140.155762 400.369629 139.108398 Q 399.714355 138.061035 399.714355 136.009277 Q 399.714355 133.957520 400.369629 132.910156 Q 401.024902 131.862793 402.308594 131.862793 Z M 402.308594 139.296387 Q 403.071289 139.296387 403.444580 138.485352 Q 403.817871 137.674316 403.817871 136.009277 Q 403.817871 135.123047 403.710449 134.408691 L 401.153809 138.410156 Q 401.556641 139.296387 402.308594 139.296387 Z M 402.308594 132.722168 Q 401.551270 132.722168 401.177979 133.533203 Q 400.804688 134.344238 400.804688 136.009277 Q 400.804688 136.766602 400.906738 137.427246 L 403.409668 133.436523 Q 403.001465 132.722168 402.308594 132.722168 Z " fill="rgb(0, 0, 0)" fill-opacity="1.000000" />
<path d="M 448.537109 133.984375 L 449.562988 133.984375 L 451.308594 139.033203 L 453.059570 133.984375 L 454.085449 133.984375 L 451.947754 140.000000 L 450.674805 140.000000 Z " fill="rgb(0, 0, 0)" fill-opacity="1.000000" />
<path d="M 456.450195 139.092285 L 458.136719 139.092285 L 458.136719 133.033691 L 456.117188 134.005859 L 456.117188 132.963867 L 458.125977 132.007812 L 459.210938 132.007812 L 459.210938 139.092285 L 460.875977 139.092285 L 460.875977 140.000000 L 456.450195 140.000000 Z " fill="rgb(0, 0, 0)" fill-opacity="1.000000" />
<path d="M 80.947754 119.969238 L 78.417969 124.207031 L 80.947754 124.207031 Z M 80.770508 118.980957 L 82.027344 118.980957 L 82.027344 124.207031 L 83.096191 124.207031 L 83.096191 125.087891 L 82.027344 125.087891 L 82.027344 127.000000 L 80.947754 127.000000 L 80.947754 125.087891 L 77.547852 125.087891 L 77.547852 124.062012 Z " fill="rgb(0, 0, 0)" fill-opacity="1.000000" />
<path d="M 91.032227 124.142578 L 94.308594 120.866211 L 97.590332 124.142578 L 94.308594 127.418945 Z " fill="rgb(0, 0, 0)" fill-opacity="1.000000" />
<path d="M 97.892578 124.335938 L 97.892578 123.412109 L 104.729980 123.412109 L 104.729980 124.335938 Z " fill="rgb(0, 0, 0)" fill-opacity="1.000000" />
<path d="M 104.892578 124.335938 L 104.892578 123.412109 L 111.729980 123.412109 L 111.729980 124.335938 Z " fill="rgb(0, 0, 0)" fill-opacity="1.000000" />
<path d="M 111.892578 124.335938 L 111.892578 123.412109 L 118.729980 123.412109 L 118.729980 124.335938 Z " fill="rgb(0, 0, 0)" fill-opacity="1.000000" />
<path d="M 118.892578 124.335938 L 118.892578 123.412109 L 125.729980 123.412109 L 125.729980 124.335938 Z " fill="rgb(0, 0, 0)" fill-opacity="1.000000" />
<path d="M 125.892578 124.335938 L 125.892578 123.412109 L 132.729980 123.412109 L 132.729980 124.335938 Z " fill="rgb(0, 0, 0)" fill-opacity="1.000000" />
<path d="M 132.892578 124.335938 L 132.892578 123.412109 L 139.729980 123.412109 L 139.729980 124.335938 Z " fill="rgb(0, 0, 0)" fill-opacity="1.000000" />
<path d="M 139.892578 124.335938 L 139.892578 123.412109 L 146.729980 123.412109 L 146.729980 124.335938 Z " fill="rgb(0, 0, 0)" fill-opacity="1.000000" />
<path d="M 147.032227 124.142578 L 150.308594 120.866211 L 153.590332 124.142578 L 150.308594 127.418945 Z " fill="rgb(0, 0, 0)" fill-opacity="1.000000" />
<path d="M 371.537109 120.984375 L 372.562988 120.984375 L 374.308594 126.033203 L 376.059570 120.984375 L 377.085449 120.984375 L 374.947754 127.000000 L 373.674805 127.000000 Z " fill="rgb(0, 0, 0)" fill-opacity="1.000000" />
<path d="M 381.308594 118.862793 Q 382.592285 118.862793 383.250244 119.910156 Q 383.908203 120.957520 383.908203 123.009277 Q 383.908203 125.061035 383.250244 126.108398 Q 382.592285 127.155762 381.308594 127.155762 Q 380.024902 127.155762 379.369629 126.108398 Q 378.714355 125.061035 378.714355 123.009277 Q 378.714355 120.957520 379.369629 119.910156 Q 380.024902 118.862793 381.308594 118.862793 Z M 381.308594 126.296387 Q 382.071289 126.296387 382.444580 125.485352 Q 382.817871 124.674316 382.817871 123.009277 Q 382.817871 122.123047 382.710449 121.408691 L 380.153809 125.410156 Q 380.556641 126.296387 381.308594 126.296387 Z M 381.308594 119.722168 Q 380.551270 119.722168 380.177979 120.533203 Q 379.804688 121.344238 379.804688 123.009277 Q 379.804688 123.766602 379.906738 124.427246 L 382.409668 120.436523 Q 382.001465 119.722168 381.308594 119.722168 Z " fill="rgb(0, 0, 0)" fill-opacity="1.000000" />
<path d="M 392.032227 124.142578 L 395.308594 120.866211 L 398.590332 124.142578 L 395.308594 127.418945 Z " fill="rgb(0, 0, 0)" fill-opacity="1.000000" />
<path d="M 398.892578 124.335938 L 398.892578 123.412109 L 405.729980 123.412109 L 405.729980 124.335938 Z " fill="rgb(0, 0, 0)" fill-opacity="1.000000" />
<path d="M 405.892578 124.335938 L 405.892578 123.412109 L 412.729980 123.412109 L 412.729980 124.335938 Z " fill="rgb(0, 0, 0)" fill-opacity="1.000000" />
<path d="M 412.892578 124.335938 L 412.892578 123.412109 L 419.729980 123.412109 L 419.729980 124.335938 Z " fill="rgb(0, 0, 0)" fill-opacity="1.000000" />
<path d="M 419.892578 124.335938 L 419.892578 123.412109 L 426.729980 123.412109 L 426.729980 124.335938 Z " fill="rgb(0, 0, 0)" fill-opacity="1.000000" />
<path d="M 426.892578 124.335938 L 426.892578 123.412109 L 433.729980 123.412109 L 433.729980 124.335938 Z " fill="rgb(0, 0, 0)" fill-opacity="1.000000" />
<path d="M 433.892578 124.335938 L 433.892578 123.412109 L 440.729980 123.412109 L 440.729980 124.335938 Z " fill="rgb(0, 0, 0)" fill-opacity="1.000000" />
<path d="M 440.892578 124.335938 L 440.892578 123.412109 L 447.729980 123.412109 L 447.729980 124.335938 Z " fill="rgb(0, 0, 0)" fill-opacity="1.000000" />
<path d="M 448.032227 124.142578 L 451.308594 120.866211 L 454.590332 124.142578 L 451.308594 127.418945 Z " fill="rgb(0, 0, 0)" fill-opacity="1.000000" />
<path d="M 93.878906 39.319336 L 93.878906 25.300781 L 94.738281 25.300781 L 94.738281 39.319336 Z " fill="rgb(0, 0, 0)" fill-opacity="1.000000" />
<path d="M 93.878906 52.319336 L 93.878906 38.300781 L 94.738281 38.300781 L 94.738281 52.319336 Z " fill="rgb(0, 0, 0)" fill-opacity="1.000000" />
<path d="M 93.878906 65.319336 L 93.878906 51.300781 L 94.738281 51.300781 L 94.738281 65.319336 Z " fill="rgb(0, 0, 0)" fill-opacity="1.000000" />
<path d="M 93.878906 78.319336 L 93.878906 64.300781 L 94.738281 64.300781 L 94.738281 78.319336 Z " fill="rgb(0, 0, 0)" fill-opacity="1.000000" />
<path d="M 93.878906 91.319336 L 93.878906 77.300781 L 94.738281 77.300781 L 94.738281 91.319336 Z " fill="rgb(0, 0, 0)" fill-opacity="1.000000" />
<path d="M 93.878906 104.319336 L 93.878906 90.300781 L 94.738281 90.300781 L 94.738281 104.319336 Z " fill="rgb(0, 0, 0)" fill-opacity="1.000000" />
<path d="M 93.878906 117.319336 L 93.878906 103.300781 L 94.738281 103.300781 L 94.738281 117.319336 Z " fill="rgb(0, 0, 0)" fill-opacity="1.000000" />
<path d="M 97.414551 117.319336 L 104.251953 103.300781 L 105.208008 103.300781 L 98.370605 117.319336 Z " fill="rgb(0, 0, 0)" fill-opacity="1.000000" />
<path d="M 149.878906 117.319336 L 149.878906 103.300781 L 150.738281 103.300781 L 150.738281 117.319336 Z " fill="rgb(0, 0, 0)" fill-opacity="1.000000" />
<path d="M 394.878906 117.319336 L 394.878906 103.300781 L 395.738281 103.300781 L 395.738281 117.319336 Z " fill="rgb(0, 0, 0)" fill-opacity="1.000000" />
<path d="M 398.414551 117.319336 L 405.251953 103.300781 L 406.208008 103.300781 L 399.370605 117.319336 Z " fill="rgb(0, 0, 0)" fill-opacity="1.000000" />
<path d="M 450.878906 117.319336 L 450.878906 103.300781 L 451.738281 103.300781 L 451.738281 117.319336 Z " fill="rgb(0, 0, 0)" fill-opacity="1.000000" />
<path d="M 104.414551 104.319336 L 111.251953 90.300781 L 112.208008 90.300781 L 105.370605 104.319336 Z " fill="rgb(0, 0, 0)" fill-opacity="1.000000" />
<path d="M 149.878906 104.319336 L 149.878906 90.300781 L 150.738281 90.300781 L 150.738281 104.319336 Z " fill="rgb(0, 0, 0)" fill-opacity="1.000000" />
<path d="M 394.878906 104.319336 L 394.878906 90.300781 L 395.738281 90.300781 L 395.738281 104.319336 Z " fill="rgb(0, 0, 0)" fill-opacity="1.000000" />
<path d="M 405.414551 104.319336 L 412.251953 90.300781 L 413.208008 90.300781 L 406.370605 104.319336 Z " fill="rgb(0, 0, 0)" fill-opacity="1.000000" />
<path d="M 450.878906 104.319336 L 450.878906 90.300781 L 451.738281 90.300781 L 451.738281 104.319336 Z " fill="rgb(0, 0, 0)" fill-opacity="1.000000" />
<path d="M 111.414551 91.319336 L 118.251953 77.300781 L 119.208008 77.300781 L 112.370605 91.319336 Z " fill="rgb(0, 0, 0)" fill-opacity="1.000000" />
<path d="M 149.878906 91.319336 L 149.878906 77.300781 L 150.738281 77.300781 L 150.738281 91.319336 Z " fill="rgb(0, 0, 0)" fill-opacity="1.000000" />
<path d="M 394.878906 91.319336 L 394.878906 77.300781 L 395.738281 77.300781 L 395.738281 91.319336 Z " fill="rgb(0, 0, 0)" fill-opacity="1.000000" />
<path d="M 412.414551 91.319336 L 419.251953 77.300781 L 420.208008 77.300781 L 413.370605 91.319336 Z " fill="rgb(0, 0, 0)" fill-opacity="1.000000" />
<path d="M 450.878906 91.319336 L 450.878906 77.300781 L 451.738281 77.300781 L 451.738281 91.319336 Z " fill="rgb(0, 0, 0)" fill-opacity="1.000000" />
<path d="M 118.414551 78.319336 L 125.251953 64.300781 L 126.208008 64.300781 L 119.370605 78.319336 Z " fill="rgb(0, 0, 0)" fill-opacity="1.000000" />
<path d="M 149.878906 78.319336 L 149.878906 64.300781 L 150.738281 64.300781 L 150.738281 78.319336 Z " fill="rgb(0, 0, 0)" fill-opacity="1.000000" />
<path d="M 394.878906 78.319336 L 394.878906 64.300781 L 395.738281 64.300781 L 395.738281 78.319336 Z " fill="rgb(0, 0, 0)" fill-opacity="1.000000" />
<path d="M 419.414551 78.319336 L 426.251953 64.300781 L 427.208008 64.300781 L 420.370605 78.319336 Z " fill="rgb(0, 0, 0)" fill-opacity="1.000000" />
<path d="M 450.878906 78.319336 L 450.878906 64.300781 L 451.738281 64.300781 L 451.738281 78.319336 Z " fill="rgb(0, 0, 0)" fill-opacity="1.000000" />
<path d="M 125.414551 65.319336 L 132.251953 51.300781 L 133.208008 51.300781 L 126.370605 65.319336 Z " fill="rgb(0, 0, 0)" fill-opacity="1.000000" />
<path d="M 149.878906 65.319336 L 149.878906 51.300781 L 150.738281 51.300781 L 150.738281 65.319336 Z " fill="rgb(0, 0, 0)" fill-opacity="1.000000" />
<path d="M 394.878906 65.319336 L 394.878906 51.300781 L 395.738281 51.300781 L 395.738281 65.319336 Z " fill="rgb(0, 0, 0)" fill-opacity="1.000000" />
<path d="M 426.414551 65.319336 L 433.251953 51.300781 L 434.208008 51.300781 L 427.370605 65.319336 Z " fill="rgb(0, 0, 0)" fill-opacity="1.000000" />
<path d="M 450.878906 65.319336 L 450.878906 51.300781 L 451.738281 51.300781 L 451.738281 65.319336 Z " fill="rgb(0, 0, 0)" fill-opacity="1.000000" />
<path d="M 132.414551 52.319336 L 139.251953 38.300781 L 140.208008 38.300781 L 133.370605 52.319336 Z " fill="rgb(0, 0, 0)" fill-opacity="1.000000" />
<path d="M 149.878906 52.319336 L 149.878906 38.300781 L 150.738281 38.300781 L 150.738281 52.319336 Z " fill="rgb(0, 0, 0)" fill-opacity="1.000000" />
<path d="M 394.878906 52.319336 L 394.878906 38.300781 L 395.738281 38.300781 L 395.738281 52.319336 Z " fill="rgb(0, 0, 0)" fill-opacity="1.000000" />
<path d="M 433.414551 52.319336 L 440.251953 38.300781 L 441.208008 38.300781 L 434.370605 52.319336 Z " fill="rgb(0, 0, 0)" fill-opacity="1.000000" />
<path d="M 450.878906 52.319336 L 450.878906 38.300781 L 451.738281 38.300781 L 451.738281 52.319336 Z " fill="rgb(0, 0, 0)" fill-opacity="1.000000" />
<path d="M 139.414551 39.319336 L 146.251953 25.300781 L 147.208008 25.300781 L 140.370605 39.319336 Z " fill="rgb(0, 0, 0)" fill-opacity="1.000000" />
<path d="M 149.878906 39.319336 L 149.878906 25.300781 L 150.738281 25.300781 L 150.738281 39.319336 Z " fill="rgb(0, 0, 0)" fill-opacity="1.000000" />
<path d="M 394.878906 39.319336 L 394.878906 25.300781 L 395.738281 25.300781 L 395.738281 39.319336 Z " fill="rgb(0, 0, 0)" fill-opacity="1.000000" />
<path d="M 440.414551 39.319336 L 447.251953 25.300781 L 448.208008 25.300781 L 441.370605 39.319336 Z " fill="rgb(0, 0, 0)" fill-opacity="1.000000" />
<path d="M 450.878906 39.319336 L 450.878906 25.300781 L 451.738281 25.300781 L 451.738281 39.319336 Z " fill="rgb(0, 0, 0)" fill-opacity="1.000000" />
<path d="M 70.537109 16.984375 L 71.562988 16.984375 L 73.308594 22.033203 L 75.059570 16.984375 L 76.085449 16.984375 L 73.947754 23.000000 L 72.674805 23.000000 Z " fill="rgb(0, 0, 0)" fill-opacity="1.000000" />
<path d="M 78.111816 14.980957 L 82.172363 14.980957 L 82.172363 15.894043 L 79.100098 15.894043 L 79.100098 17.865234 Q 79.331055 17.779297 79.564697 17.739014 Q 79.798340 17.698730 80.034668 17.698730 Q 81.280762 17.698730 82.011230 18.434570 Q 82.741699 19.170410 82.741699 20.427246 Q 82.741699 21.694824 81.976318 22.425293 Q 81.210938 23.155762 79.884277 23.155762 Q 79.245117 23.155762 78.716064 23.069824 Q 78.187012 22.983887 77.768066 22.812012 L 77.768066 21.710938 Q 78.262207 21.979492 78.761719 22.111084 Q 79.261230 22.242676 79.782227 22.242676 Q 80.679199 22.242676 81.165283 21.770020 Q 81.651367 21.297363 81.651367 20.427246 Q 81.651367 19.567871 81.149170 19.089844 Q 80.646973 18.611816 79.750000 18.611816 Q 79.314941 18.611816 78.901367 18.711182 Q 78.487793 18.810547 78.111816 19.009277 Z " fill="rgb(0, 0, 0)" fill-opacity="1.000000" />
<path d="M 91.032227 20.142578 L 94.308594 16.866211 L 97.590332 20.142578 L 94.308594 23.418945 Z " fill="rgb(0, 0, 0)" fill-opacity="1.000000" />
<path d="M 97.892578 20.335938 L 97.892578 19.412109 L 104.729980 19.412109 L 104.729980 20.335938 Z " fill="rgb(0, 0, 0)" fill-opacity="1.000000" />
<path d="M 104.892578 20.335938 L 104.892578 19.412109 L 111.729980 19.412109 L 111.729980 20.335938 Z " fill="rgb(0, 0, 0)" fill-opacity="1.000000" />
<path d="M 111.892578 20.335938 L 111.892578 19.412109 L 118.729980 19.412109 L 118.729980 20.335938 Z " fill="rgb(0, 0, 0)" fill-opacity="1.000000" />
<path d="M 118.892578 20.335938 L 118.892578 19.412109 L 125.729980 19.412109 L 125.729980 20.335938 Z " fill="rgb(0, 0, 0)" fill-opacity="1.000000" />
<path d="M 125.892578 20.335938 L 125.892578 19.412109 L 132.729980 19.412109 L 132.729980 20.335938 Z " fill="rgb(0, 0, 0)" fill-opacity="1.000000" />
<path d="M 132.892578 20.335938 L 132.892578 19.412109 L 139.729980 19.412109 L 139.729980 20.335938 Z " fill="rgb(0, 0, 0)" fill-opacity="1.000000" />
<path d="M 139.892578 20.335938 L 139.892578 19.412109 L 146.729980 19.412109 L 146.729980 20.335938 Z " fill="rgb(0, 0, 0)" fill-opacity="1.000000" />
<path d="M 147.032227 20.142578 L 150.308594 16.866211 L 153.590332 20.142578 L 150.308594 23.418945 Z " fill="rgb(0, 0, 0)" fill-opacity="1.000000" />
<path d="M 161.537109 16.984375 L 162.562988 16.984375 L 164.308594 22.033203 L 166.059570 16.984375 L 167.085449 16.984375 L 164.947754 23.000000 L 163.674805 23.000000 Z " fill="rgb(0, 0, 0)" fill-opacity="1.000000" />
<path d="M 170.003418 22.086914 L 173.687988 22.086914 L 173.687988 23.000000 L 168.816406 23.000000 L 168.816406 22.086914 Q 169.820801 21.028809 170.572754 20.217773 Q 171.324707 19.406738 171.609375 19.073730 Q 172.146484 18.418457 172.334473 18.012939 Q 172.522461 17.607422 172.522461 17.183105 Q 172.522461 16.511719 172.127686 16.130371 Q 171.732910 15.749023 171.045410 15.749023 Q 170.556641 15.749023 170.019531 15.926270 Q 169.482422 16.103516 168.880859 16.463379 L 168.880859 15.367676 Q 169.434082 15.104492 169.968506 14.970215 Q 170.502930 14.835938 171.023926 14.835938 Q 172.200195 14.835938 172.917236 15.461670 Q 173.634277 16.087402 173.634277 17.102539 Q 173.634277 17.618164 173.395264 18.133789 Q 173.156250 18.649414 172.619141 19.272461 Q 172.318359 19.621582 171.746338 20.239258 Q 171.174316 20.856934 170.003418 22.086914 Z " fill="rgb(0, 0, 0)" fill-opacity="1.000000" />
<path d="M 371.537109 16.984375 L 372.562988 16.984375 L 374.308594 22.033203 L 376.059570 16.984375 L 377.085449 16.984375 L 374.947754 23.000000 L 373.674805 23.000000 Z " fill="rgb(0, 0, 0)" fill-opacity="1.000000" />
<path d="M 382.167969 18.708496 Q 382.957520 18.917969 383.376465 19.452393 Q 383.795410 19.986816 383.795410 20.787109 Q 383.795410 21.893555 383.051514 22.524658 Q 382.307617 23.155762 380.991699 23.155762 Q 380.438477 23.155762 379.863770 23.053711 Q 379.289062 22.951660 378.735840 22.758301 L 378.735840 21.678711 Q 379.283691 21.963379 379.815430 22.103027 Q 380.347168 22.242676 380.873535 22.242676 Q 381.765137 22.242676 382.243164 21.839844 Q 382.721191 21.437012 382.721191 20.679688 Q 382.721191 19.981445 382.243164 19.570557 Q 381.765137 19.159668 380.948730 19.159668 L 380.121582 19.159668 L 380.121582 18.268066 L 380.948730 18.268066 Q 381.695312 18.268066 382.114258 17.940430 Q 382.533203 17.612793 382.533203 17.027344 Q 382.533203 16.409668 382.143799 16.079346 Q 381.754395 15.749023 381.034668 15.749023 Q 380.556641 15.749023 380.046387 15.856445 Q 379.536133 15.963867 378.977539 16.178711 L 378.977539 15.179688 Q 379.627441 15.007812 380.135010 14.921875 Q 380.642578 14.835938 381.034668 14.835938 Q 382.205566 14.835938 382.906494 15.424072 Q 383.607422 16.012207 383.607422 16.984375 Q 383.607422 17.645020 383.239502 18.085449 Q 382.871582 18.525879 382.167969 18.708496 Z " fill="rgb(0, 0, 0)" fill-opacity="1.000000" />
<path d="M 392.032227 20.142578 L 395.308594 16.866211 L 398.590332 20.142578 L 395.308594 23.418945 Z " fill="rgb(0, 0, 0)" fill-opacity="1.000000" />
<path d="M 398.892578 20.335938 L 398.892578 19.412109 L 405.729980 19.412109 L 405.729980 20.335938 Z " fill="rgb(0, 0, 0)" fill-opacity="1.000000" />
<path d="M 405.892578 20.335938 L 405.892578 19.412109 L 412.729980 19.412109 L 412.729980 20.335938 Z " fill="rgb(0, 0, 0)" fill-opacity="1.000000" />
<path d="M 412.892578 20.335938 L 412.892578 19.412109 L 419.729980 19.412109 L 419.729980 20.335938 Z " fill="rgb(0, 0, 0)" fill-opacity="1.000000" />
<path d="M 419.892578 20.335938 L 419.892578 19.412109 L 426.729980 19.412109 L 426.729980 20.335938 Z " fill="rgb(0, 0, 0)" fill-opacity="1.000000" />
<path d="M 426.892578 20.335938 L 426.892578 19.412109 L 433.729980 19.412109 L 433.729980 20.335938 Z " fill="rgb(0, 0, 0)" fill-opacity="1.000000" />
<path d="M 433.892578 20.335938 L 433.892578 19.412109 L 440.729980 19.412109 L 440.729980 20.335938 Z " fill="rgb(0, 0, 0)" fill-opacity="1.000000" />
<path d="M 440.892578 20.335938 L 440.892578 19.412109 L 447.729980 19.412109 L 447.729980 20.335938 Z " fill="rgb(0, 0, 0)" fill-opacity="1.000000" />
<path d="M 448.032227 20.142578 L 451.308594 16.866211 L 454.590332 20.142578 L 451.308594 23.418945 Z " fill="rgb(0, 0, 0)" fill-opacity="1.000000" />
<path d="M 462.537109 16.984375 L 463.562988 16.984375 L 465.308594 22.033203 L 467.059570 16.984375 L 468.085449 16.984375 L 465.947754 23.000000 L 464.674805 23.000000 Z " fill="rgb(0, 0, 0)" fill-opacity="1.000000" />
<path d="M 471.003418 22.086914 L 474.687988 22.086914 L 474.687988 23.000000 L 469.816406 23.000000 L 469.816406 22.086914 Q 470.820801 21.028809 471.572754 20.217773 Q 472.324707 19.406738 472.609375 19.073730 Q 473.146484 18.418457 473.334473 18.012939 Q 473.522461 17.607422 473.522461 17.183105 Q 473.522461 16.511719 473.127686 16.130371 Q 472.732910 15.749023 472.045410 15.749023 Q 471.556641 15.749023 471.019531 15.926270 Q 470.482422 16.103516 469.880859 16.463379 L 469.880859 15.367676 Q 470.434082 15.104492 470.968506 14.970215 Q 471.502930 14.835938 472.023926 14.835938 Q 473.200195 14.835938 473.917236 15.461670 Q 474.634277 16.087402 474.634277 17.102539 Q 474.634277 17.618164 474.395264 18.133789 Q 474.156250 18.649414 473.619141 19.272461 Q 473.318359 19.621582 472.746338 20.239258 Q 472.174316 20.856934 471.003418 22.086914 Z " fill="rgb(0, 0, 0)" fill-opacity="1.000000" />
<path d="M 140.537109 3.984375 L 141.562988 3.984375 L 143.308594 9.033203 L 145.059570 3.984375 L 146.085449 3.984375 L 143.947754 10.000000 L 142.674805 10.000000 Z " fill="rgb(0, 0, 0)" fill-opacity="1.000000" />
<path d="M 151.167969 5.708496 Q 151.957520 5.917969 152.376465 6.452393 Q 152.795410 6.986816 152.795410 7.787109 Q 152.795410 8.893555 152.051514 9.524658 Q 151.307617 10.155762 149.991699 10.155762 Q 149.438477 10.155762 148.863770 10.053711 Q 148.289062 9.951660 147.735840 9.758301 L 147.735840 8.678711 Q 148.283691 8.963379 148.815430 9.103027 Q 149.347168 9.242676 149.873535 9.242676 Q 150.765137 9.242676 151.243164 8.839844 Q 151.721191 8.437012 151.721191 7.679688 Q 151.721191 6.981445 151.243164 6.570557 Q 150.765137 6.159668 149.948730 6.159668 L 149.121582 6.159668 L 149.121582 5.268066 L 149.948730 5.268066 Q 150.695312 5.268066 151.114258 4.940430 Q 151.533203 4.612793 151.533203 4.027344 Q 151.533203 3.409668 151.143799 3.079346 Q 150.754395 2.749023 150.034668 2.749023 Q 149.556641 2.749023 149.046387 2.856445 Q 148.536133 2.963867 147.977539 3.178711 L 147.977539 2.179688 Q 148.627441 2.007812 149.135010 1.921875 Q 149.642578 1.835938 150.034668 1.835938 Q 151.205566 1.835938 151.906494 2.424072 Q 152.607422 3.012207 152.607422 3.984375 Q 152.607422 4.645020 152.239502 5.085449 Q 151.871582 5.525879 151.167969 5.708496 Z " fill="rgb(0, 0, 0)" fill-opacity="1.000000" />
<path d="M 448.537109 3.984375 L 449.562988 3.984375 L 451.308594 9.033203 L 453.059570 3.984375 L 454.085449 3.984375 L 451.947754 10.000000 L 450.674805 10.000000 Z " fill="rgb(0, 0, 0)" fill-opacity="1.000000" />
<path d="M 457.003418 9.086914 L 460.687988 9.086914 L 460.687988 10.000000 L 455.816406 10.000000 L 455.816406 9.086914 Q 456.820801 8.028809 457.572754 7.217773 Q 458.324707 6.406738 458.609375 6.073730 Q 459.146484 5.418457 459.334473 5.012939 Q 459.522461 4.607422 459.522461 4.183105 Q 459.522461 3.511719 459.127686 3.130371 Q 458.732910 2.749023 458.045410 2.749023 Q 457.556641 2.749023 457.019531 2.926270 Q 456.482422 3.103516 455.880859 3.463379 L 455.880859 2.367676 Q 456.434082 2.104492 456.968506 1.970215 Q 457.502930 1.835938 458.023926 1.835938 Q 459.200195 1.835938 459.917236 2.461670 Q 460.634277 3.087402 460.634277 4.102539 Q 460.634277 4.618164 460.395264 5.133789 Q 460.156250 5.649414 459.619141 6.272461 Q 459.318359 6.621582 458.746338 7.239258 Q 458.174316 7.856934 457.003418 9.086914 Z " fill="rgb(0, 0, 0)" fill-opacity="1.000000" />
</svg>